<?xml version="1.0" encoding="UTF-8"?>
<svg width="24px" height="24px" viewBox="0 0 24 24" version="1.1" xmlns="http://www.w3.org/2000/svg" xmlns:xlink="http://www.w3.org/1999/xlink">
    <!-- Generator: Sketch 51.3 (57544) - http://www.bohemiancoding.com/sketch -->
    <title>Netgiro_Logo_alt_24</title>
    <desc>Created with Sketch.</desc>
    <defs></defs>
    <g id="Page-1" stroke="none" stroke-width="1" fill="none" fill-rule="evenodd">
        <g id="Netgiro_Logo_alt_24">
            <path d="M0.0146353548,7.71136901 L0.0146353548,15.4194254 C4.42389155,15.4194254 7.9982994,11.9684113 7.9982994,7.71136901 L7.9982994,0.00331267606 C3.5890432,0.00331267606 0.0146353548,3.45432676 0.0146353548,7.71136901" id="Fill-1" fill="#00AEEF"></path>
            <path d="M15.9899461,7.71136901 L15.9899461,15.4194254 C20.3992023,15.4194254 23.9736101,11.9684113 23.9736101,7.71136901 L23.9736101,0.00331267606 C19.5643539,0.00331267606 15.9899461,3.45432676 15.9899461,7.71136901" id="Fill-3" fill="#FFE300"></path>
            <path d="M15.9819897,7.71136901 C15.9819897,3.45432676 12.4075819,0.00331267606 7.99832566,0.00331267606 L7.99832566,7.71136901 C7.99832566,11.9684113 11.5727335,15.4194254 15.9819897,15.4194254 L15.9819897,7.71136901 Z" id="Fill-5" fill="#64C3A2"></path>
            <path d="M0.00352796801,22.453107 L0.00352796801,19.5333887 L0.782970677,19.5333887 L0.782970677,19.7681493 C1.01369622,19.5875577 1.30044011,19.4732197 1.63725039,19.4732197 C2.05493715,19.4732197 2.4353367,19.6537268 2.68470585,19.9427408 C2.88427119,20.1715014 2.99648293,20.4665155 2.99648293,20.9661211 L2.99648293,22.453107 L2.18596755,22.453107 L2.18596755,20.9058676 C2.18596755,20.616938 2.11734508,20.4665155 2.00504581,20.358093 C1.89904861,20.2557549 1.73694553,20.1955859 1.54989679,20.1955859 C1.2069595,20.1955859 0.92634262,20.406262 0.814130879,20.5568535 L0.814130879,22.453107 L0.00352796801,22.453107 Z" id="Fill-7" fill="#231F20"></path>
            <path d="M6.15800935,20.6169718 C6.13306368,20.3581268 5.88990906,20.1051972 5.55940085,20.1051972 C5.22276562,20.1051972 4.94836328,20.3520423 4.91090101,20.6169718 L6.15800935,20.6169718 Z M6.91250639,21.9895352 C6.61946044,22.3266338 6.13927821,22.5132254 5.67170012,22.5132254 C4.76752907,22.5132254 4.08786903,21.9112817 4.08786903,20.9962394 C4.08786903,20.1835352 4.66153186,19.473169 5.55940085,19.473169 C6.39494943,19.473169 6.98734339,20.1534507 6.98734339,20.9661549 C6.98734339,21.044493 6.98104133,21.1225775 6.96861226,21.1889155 L4.8736138,21.1889155 C4.91720308,21.5981831 5.26014036,21.8811972 5.69034372,21.8811972 C6.03328101,21.8811972 6.30759582,21.6945211 6.4510553,21.5440986 L6.91250639,21.9895352 Z" id="Fill-9" fill="#231F20"></path>
            <path d="M10.3546409,22.453107 C10.2486437,22.4892761 10.0054891,22.5132761 9.84951303,22.5132761 C9.3632038,22.5132761 9.00783745,22.356769 8.80205757,22.0919239 C8.6460815,21.8932479 8.57754656,21.6344028 8.57754656,21.2189662 L8.57754656,20.1955859 L7.73587098,20.1955859 L7.73587098,19.5333887 L8.57754656,19.5333887 L8.57754656,18.7206845 L9.38814947,18.7206845 L9.38814947,19.5333887 L10.3858011,19.5333887 L10.3858011,20.1955859 L9.38814947,20.1955859 L9.38814947,21.3092197 C9.38814947,21.4898958 9.4193972,21.5982338 9.48793214,21.6764873 C9.56898368,21.7668254 9.69992656,21.8209944 9.89940437,21.8209944 C10.0179182,21.8209944 10.1738067,21.8029944 10.2299126,21.7908254 L10.3546409,22.453107 Z" id="Fill-11" fill="#231F20"></path>
            <path d="M13.6284579,20.5568113 C13.4601402,20.3401352 13.1918649,20.1956282 12.8801753,20.1956282 C12.4062952,20.1956282 12.1007326,20.5748113 12.1007326,20.9962479 C12.1007326,21.4536845 12.4437575,21.7908676 12.8989065,21.7908676 C13.2043815,21.7908676 13.4724818,21.6463606 13.6284579,21.4296845 L13.6284579,20.5568113 Z M14.4390608,22.2905577 C14.4390608,22.8143324 14.3454926,23.1273465 14.1646584,23.3741915 C13.8902561,23.7414592 13.4039468,23.9580507 12.8239819,23.9580507 C12.231763,23.9580507 11.6705293,23.6932056 11.3711813,23.356107 L11.8826112,22.8443324 C12.0447143,23.0129239 12.3251561,23.265769 12.8239819,23.265769 C13.0859552,23.265769 13.3041642,23.1875155 13.4414091,23.0310085 C13.5660499,22.8985014 13.6284579,22.7179099 13.6284579,22.3447268 L13.6284579,22.2484732 C13.3852157,22.4289803 13.12333,22.5132338 12.8178549,22.5132338 C12.3688329,22.5132338 11.9386296,22.3206423 11.6705293,22.0197127 C11.4335892,21.7547831 11.2901297,21.3935155 11.2901297,20.9962479 C11.2901297,20.1353746 11.9511462,19.4731775 12.7740906,19.4731775 C13.1171154,19.4731775 13.4225904,19.5815155 13.6596181,19.768107 L13.6596181,19.5333465 L14.4390608,19.5333465 L14.4390608,22.2905577 Z" id="Fill-13" fill="#231F20"></path>
            <path d="M17.2139293,18.1186563 L16.4656468,19.0818676 L15.9045006,19.0818676 L16.3409185,18.1186563 L17.2139293,18.1186563 Z M15.8420927,22.453107 L16.6526956,22.453107 L16.6526956,19.5333887 L15.8420927,19.5333887 L15.8420927,22.453107 Z" id="Fill-15" fill="#231F20"></path>
            <path d="M19.8953085,20.2257127 C19.8391151,20.2075437 19.7206888,20.1956282 19.602175,20.1956282 C19.2468962,20.1956282 18.9662793,20.4423042 18.8664967,20.6169803 L18.8664967,22.4530648 L18.0558938,22.4530648 L18.0558938,19.5333465 L18.8353365,19.5333465 L18.8353365,19.8283606 C19.0161707,19.6116 19.3465914,19.4731775 19.7144743,19.4731775 C19.8329881,19.4731775 19.9015231,19.4851775 19.9887891,19.497262 L19.8953085,20.2257127 Z" id="Fill-17" fill="#231F20"></path>
            <path d="M23.374704,18.1186563 L22.626509,19.0818676 L22.0652753,19.0818676 L22.5016932,18.1186563 L23.374704,18.1186563 Z M22.3458922,21.7908254 C22.8196848,21.7908254 23.1439785,21.4357268 23.1439785,20.9962901 C23.1439785,20.5568535 22.8196848,20.1955859 22.3458922,20.1955859 C21.8719245,20.1955859 21.5477183,20.5568535 21.5477183,20.9962901 C21.5477183,21.4357268 21.8719245,21.7908254 22.3458922,21.7908254 Z M22.3458922,19.4732197 C23.2624047,19.4732197 23.9545814,20.1534169 23.9545814,20.9962901 C23.9545814,21.8389944 23.2624047,22.5132761 22.3458922,22.5132761 C21.429292,22.5132761 20.7371154,21.8389944 20.7371154,20.9962901 C20.7371154,20.1534169 21.429292,19.4732197 22.3458922,19.4732197 Z" id="Fill-19" fill="#231F20"></path>
        </g>
    </g>
</svg>