<?xml version="1.0" encoding="UTF-8"?>
<svg width="456px" height="114px" viewBox="0 0 456 114" version="1.1" xmlns="http://www.w3.org/2000/svg" xmlns:xlink="http://www.w3.org/1999/xlink">
    <!-- Generator: Sketch 51.2 (57519) - http://www.bohemiancoding.com/sketch -->
    <title>Netgiro_Logo_300</title>
    <desc>Created with Sketch.</desc>
    <defs></defs>
    <g id="Page-1" stroke="none" stroke-width="1" fill="none" fill-rule="evenodd">
        <g id="Netgiro_Logo_300">
            <path d="M208.27025,72.0799381 L208.27025,40.7733667 L216.307025,40.7733667 L216.307025,43.291319 C218.686155,41.3551286 221.642945,40.1291762 225.115214,40.1291762 C229.422882,40.1291762 233.344843,42.0644619 235.916827,45.1632714 C237.973333,47.616081 239.130455,50.7791286 239.130455,56.1362238 L239.130455,72.0799381 L230.772858,72.0799381 L230.772858,55.4911286 C230.772858,52.392319 230.066329,50.7791286 228.908305,49.6174143 C227.815167,48.5190333 226.143467,47.8748429 224.21493,47.8748429 C220.679578,47.8748429 217.78587,50.1340333 216.628748,51.7472238 L216.628748,72.0799381 L208.27025,72.0799381 Z" id="Fill-1" fill="#231F20"></path>
            <path d="M271.729949,52.3925905 C271.473111,49.6176857 268.966013,46.9061143 265.557728,46.9061143 C262.08636,46.9061143 259.257538,49.5525429 258.87093,52.3925905 L271.729949,52.3925905 Z M279.509886,67.1094476 C276.48821,70.7239714 271.537096,72.7253048 266.715752,72.7253048 C257.392985,72.7253048 250.384463,66.2707333 250.384463,56.4594952 C250.384463,47.7448286 256.299847,40.1285429 265.557728,40.1285429 C274.173064,40.1285429 280.281301,47.4218286 280.281301,56.1364952 C280.281301,56.9761143 280.216416,57.8148286 280.088447,58.5250667 L258.486123,58.5250667 C258.935815,62.9131619 262.472068,65.9477333 266.907704,65.9477333 C270.443957,65.9477333 273.272779,63.9464 274.751625,62.3332095 L279.509886,67.1094476 Z" id="Fill-3" fill="#231F20"></path>
            <path d="M315.002277,72.0799381 C313.909138,72.4671762 311.40204,72.7250333 309.794324,72.7250333 C304.780126,72.7250333 301.115004,71.0467 298.992711,68.2066524 C297.385897,66.0768429 296.678466,63.3010333 296.678466,58.8477952 L296.678466,47.8748429 L287.999146,47.8748429 L287.999146,40.7733667 L296.678466,40.7733667 L296.678466,32.0605095 L305.036964,32.0605095 L305.036964,40.7733667 L315.324,40.7733667 L315.324,47.8748429 L305.036964,47.8748429 L305.036964,59.8149857 C305.036964,61.752081 305.358688,62.9137952 306.065217,63.7525095 C306.901518,64.7215095 308.251494,65.3023667 310.308901,65.3023667 C311.530909,65.3023667 313.137723,65.1087476 313.716285,64.9793667 L315.002277,72.0799381 Z" id="Fill-5" fill="#231F20"></path>
            <path d="M348.758893,51.7475857 C347.023209,49.4241571 344.25747,47.8743 341.042941,47.8743 C336.157613,47.8743 333.007067,51.9412048 333.007067,56.4595857 C333.007067,61.3643 336.54332,64.9788238 341.235794,64.9788238 C344.38634,64.9788238 347.151178,63.4298714 348.758893,61.1073476 L348.758893,51.7475857 Z M357.117391,70.3368238 C357.117391,75.952681 356.152221,79.3093476 354.287668,81.9557762 C351.457945,85.8933 346.443747,88.2167286 340.464379,88.2167286 C334.357945,88.2167286 328.57053,85.376681 325.48487,81.7621571 L330.756806,76.275681 C332.429407,78.0824905 335.321312,80.7940619 340.464379,80.7940619 C343.165233,80.7940619 345.414593,79.9544429 346.830356,78.2761095 C348.115447,76.8556333 348.758893,74.9194429 348.758893,70.9185857 L348.758893,69.8853476 C346.250893,71.8215381 343.550941,72.7253952 340.401296,72.7253952 C335.771905,72.7253952 331.335368,70.658919 328.57053,67.4325381 C326.128316,64.5924905 324.648569,60.7192048 324.648569,56.4595857 C324.648569,47.2283 331.464237,40.1286333 339.950704,40.1286333 C343.486055,40.1286333 346.636601,41.2903476 349.080617,43.2907762 L349.080617,40.7737286 L357.117391,40.7737286 L357.117391,70.3368238 Z" id="Fill-7" fill="#231F20"></path>
            <path d="M385.729499,25.6053048 L378.013546,35.9331619 L372.227934,35.9331619 L376.727554,25.6053048 L385.729499,25.6053048 Z M371.584487,72.0802095 L379.942084,72.0802095 L379.942084,40.7736381 L371.584487,40.7736381 L371.584487,72.0802095 Z" id="Fill-9" fill="#231F20"></path>
            <path d="M413.377608,48.197481 C412.798145,48.0029571 411.577039,47.874481 410.355031,47.874481 C406.690809,47.874481 403.798003,50.5200048 402.76975,52.3928619 L402.76975,72.0795762 L394.410351,72.0795762 L394.410351,40.7739095 L402.447126,40.7739095 L402.447126,43.9369571 C404.311679,41.6135286 407.719964,40.1288143 411.513055,40.1288143 C412.734161,40.1288143 413.441592,40.2572905 414.340975,40.3866714 L413.377608,48.197481 Z" id="Fill-11" fill="#231F20"></path>
            <path d="M449.254264,25.6053048 L441.538311,35.9331619 L435.752699,35.9331619 L440.252319,25.6053048 L449.254264,25.6053048 Z M438.646406,64.9796381 C443.530833,64.9796381 446.875134,61.1714952 446.875134,56.4594952 C446.875134,51.7474952 443.530833,47.8742095 438.646406,47.8742095 C433.759276,47.8742095 430.416778,51.7474952 430.416778,56.4594952 C430.416778,61.1714952 433.759276,64.9796381 438.646406,64.9796381 Z M438.646406,40.1285429 C448.09624,40.1285429 455.233632,47.4218286 455.233632,56.4594952 C455.233632,65.4953524 448.09624,72.7253048 438.646406,72.7253048 C429.19477,72.7253048 422.057379,65.4953524 422.057379,56.4594952 C422.057379,47.4218286 429.19477,40.1285429 438.646406,40.1285429 Z" id="Fill-13" fill="#231F20"></path>
            <path d="M0.524940711,56.8266476 L0.524940711,113.480124 C31.6906482,113.480124 56.9553913,88.1160286 56.9553913,56.8266476 L56.9553913,0.172266667 C25.7896838,0.172266667 0.524940711,25.5372667 0.524940711,56.8266476" id="Fill-15" fill="#00AEEF"></path>
            <path d="M113.441175,56.8266476 L113.441175,113.480124 C144.606882,113.480124 169.871625,88.1160286 169.871625,56.8266476 L169.871625,0.172266667 C138.705918,0.172266667 113.441175,25.5372667 113.441175,56.8266476" id="Fill-17" fill="#FFE300"></path>
            <path d="M113.385301,56.8266476 C113.385301,25.5372667 88.1205581,0.172266667 56.9548506,0.172266667 L56.9548506,56.8266476 C56.9548506,88.1160286 82.2195937,113.480124 113.385301,113.480124 L113.385301,56.8266476 Z" id="Fill-19" fill="#64C3A2"></path>
        </g>
    </g>
</svg>