<?xml version="1.0" encoding="UTF-8"?>
<svg width="202px" height="50px" viewBox="0 0 202 50" version="1.1" xmlns="http://www.w3.org/2000/svg" xmlns:xlink="http://www.w3.org/1999/xlink">
    <!-- Generator: Sketch 51.2 (57519) - http://www.bohemiancoding.com/sketch -->
    <title>Netgiro_Logo_130</title>
    <desc>Created with Sketch.</desc>
    <defs></defs>
    <g id="Page-1" stroke="none" stroke-width="1" fill="none" fill-rule="evenodd">
        <g id="Netgiro_Logo_130">
            <path d="M92.2600668,31.6140079 L92.2600668,17.8830556 L95.820217,17.8830556 L95.820217,18.9874206 C96.87413,18.1382143 98.1839364,17.6005159 99.7220905,17.6005159 C101.630312,17.6005159 103.367672,18.4493254 104.507015,19.8084524 C105.418011,20.884246 105.930596,22.2715476 105.930596,24.6211508 L105.930596,31.6140079 L102.228328,31.6140079 L102.228328,24.3382143 C102.228328,22.9790873 101.915347,22.2715476 101.402363,21.7620238 C100.918122,21.2802778 100.177589,20.9977381 99.3232802,20.9977381 C97.7571814,20.9977381 96.4753198,21.9886111 95.9627348,22.6961508 L95.9627348,31.6140079 L92.2600668,31.6140079 Z" id="Fill-1" fill="#231F20"></path>
            <path d="M120.3716,22.9792063 C120.257826,21.7621429 119.147225,20.5728571 117.637415,20.5728571 C116.09966,20.5728571 114.846541,21.7335714 114.67528,22.9792063 L120.3716,22.9792063 Z M123.817976,29.4339683 C122.479426,31.0192857 120.28617,31.8970635 118.150399,31.8970635 C114.020577,31.8970635 110.915925,29.0661111 110.915925,24.7629365 C110.915925,20.9407143 113.536336,17.6002381 117.637415,17.6002381 C121.453857,17.6002381 124.159699,20.7990476 124.159699,24.6212698 C124.159699,24.9895238 124.130956,25.357381 124.074268,25.6688889 L114.504818,25.6688889 C114.704023,27.5934921 116.270521,28.9244444 118.23543,28.9244444 C119.801928,28.9244444 121.055047,28.0466667 121.71015,27.339127 L123.817976,29.4339683 Z" id="Fill-3" fill="#231F20"></path>
            <path d="M139.540482,31.6140079 C139.056241,31.7838492 137.94564,31.8969444 137.233451,31.8969444 C135.012249,31.8969444 133.388664,31.1608333 132.448526,29.9151984 C131.736735,28.9810714 131.423356,27.7636111 131.423356,25.8104365 L131.423356,20.9977381 L127.578569,20.9977381 L127.578569,17.8830556 L131.423356,17.8830556 L131.423356,14.061627 L135.126024,14.061627 L135.126024,17.8830556 L139.683,17.8830556 L139.683,20.9977381 L135.126024,20.9977381 L135.126024,26.2346429 C135.126024,27.084246 135.268542,27.5937698 135.581522,27.961627 C135.951988,28.386627 136.550004,28.6413889 137.461399,28.6413889 C138.002727,28.6413889 138.714518,28.5564683 138.97081,28.4997222 L139.540482,31.6140079 Z" id="Fill-5" fill="#231F20"></path>
            <path d="M154.494071,22.6963095 C153.725194,21.6772619 152.50002,20.9975 151.07604,20.9975 C148.911925,20.9975 147.516289,22.7812302 147.516289,24.7629762 C147.516289,26.9141667 149.082787,28.4994841 151.16147,28.4994841 C152.557107,28.4994841 153.781881,27.820119 154.494071,26.8014683 L154.494071,22.6963095 Z M158.196739,30.8494841 C158.196739,33.3125794 157.769186,34.7848016 156.943221,35.9455159 C155.689704,37.6725 153.468502,38.6915476 150.819747,38.6915476 C148.114704,38.6915476 145.55098,37.4459127 144.184087,35.8605952 L146.519462,33.454246 C147.260395,34.2467063 148.541458,35.4359921 150.819747,35.4359921 C152.016178,35.4359921 153.012605,35.0677381 153.639763,34.331627 C154.209036,33.7086111 154.494071,32.8594048 154.494071,31.1046429 L154.494071,30.6514683 C153.383071,31.5006746 152.18704,31.8971032 150.791802,31.8971032 C148.741063,31.8971032 146.775755,30.990754 145.55098,29.5756746 C144.469123,28.3300397 143.813621,26.6312302 143.813621,24.7629762 C143.813621,20.7141667 146.832842,17.6002778 150.592198,17.6002778 C152.158296,17.6002778 153.553933,18.1098016 154.636589,18.9871825 L154.636589,17.8832143 L158.196739,17.8832143 L158.196739,30.8494841 Z" id="Fill-7" fill="#231F20"></path>
            <path d="M170.871401,11.2303968 L167.453369,15.7601587 L164.890444,15.7601587 L166.883697,11.2303968 L170.871401,11.2303968 Z M164.605409,31.614127 L168.307677,31.614127 L168.307677,17.8831746 L164.605409,17.8831746 L164.605409,31.614127 Z" id="Fill-9" fill="#231F20"></path>
            <path d="M183.119028,21.139246 C182.862336,21.0539286 182.321408,20.9975794 181.780079,20.9975794 C180.156894,20.9975794 178.875431,22.1578968 178.419933,22.9793254 L178.419933,31.6138492 L174.716866,31.6138492 L174.716866,17.8832937 L178.277016,17.8832937 L178.277016,19.2705952 C179.102981,18.2515476 180.612791,17.6003571 182.293064,17.6003571 C182.833992,17.6003571 183.147372,17.6567063 183.545783,17.7134524 L183.119028,21.139246 Z" id="Fill-11" fill="#231F20"></path>
            <path d="M199.011757,11.2303968 L195.593726,15.7601587 L193.030801,15.7601587 L195.024054,11.2303968 L199.011757,11.2303968 Z M194.312662,28.4998413 C196.476378,28.4998413 197.957844,26.8296032 197.957844,24.7629365 C197.957844,22.6962698 196.476378,20.9974603 194.312662,20.9974603 C192.147749,20.9974603 190.667081,22.6962698 190.667081,24.7629365 C190.667081,26.8296032 192.147749,28.4998413 194.312662,28.4998413 Z M194.312662,17.6002381 C198.498773,17.6002381 201.660512,20.7990476 201.660512,24.7629365 C201.660512,28.7260317 198.498773,31.8970635 194.312662,31.8970635 C190.125753,31.8970635 186.964014,28.7260317 186.964014,24.7629365 C186.964014,20.7990476 190.125753,17.6002381 194.312662,17.6002381 Z" id="Fill-13" fill="#231F20"></path>
            <path d="M0.232539526,24.9239683 L0.232539526,49.7719841 C14.0384012,49.7719841 25.2302391,38.647381 25.2302391,24.9239683 L25.2302391,0.0755555556 C11.4243775,0.0755555556 0.232539526,11.2005556 0.232539526,24.9239683" id="Fill-15" fill="#00AEEF"></path>
            <path d="M50.2524502,24.9239683 L50.2524502,49.7719841 C64.0583119,49.7719841 75.2501498,38.647381 75.2501498,24.9239683 L75.2501498,0.0755555556 C61.4442881,0.0755555556 50.2524502,11.2005556 50.2524502,24.9239683" id="Fill-17" fill="#FFE300"></path>
            <path d="M50.2276992,24.9239683 C50.2276992,11.2005556 39.0358613,0.0755555556 25.2299996,0.0755555556 L25.2299996,24.9239683 C25.2299996,38.647381 36.4218375,49.7719841 50.2276992,49.7719841 L50.2276992,24.9239683 Z" id="Fill-19" fill="#64C3A2"></path>
        </g>
    </g>
</svg>