<?xml version="1.0" encoding="UTF-8"?>
<svg width="105px" height="26px" viewBox="0 0 105 26" version="1.1" xmlns="http://www.w3.org/2000/svg" xmlns:xlink="http://www.w3.org/1999/xlink">
    <!-- Generator: Sketch 51.2 (57519) - http://www.bohemiancoding.com/sketch -->
    <title>Netgiro_Logo_70</title>
    <desc>Created with Sketch.</desc>
    <defs></defs>
    <g id="Page-1" stroke="none" stroke-width="1" fill="none" fill-rule="evenodd">
        <g id="Netgiro_Logo_70">
            <path d="M47.9569654,16.4392841 L47.9569654,9.29918889 L49.8075385,9.29918889 L49.8075385,9.87345873 C50.3553646,9.43187143 51.0362045,9.15226825 51.8357401,9.15226825 C52.8276374,9.15226825 53.7307204,9.59364921 54.3229536,10.3003952 C54.7964911,10.8598079 55.0629338,11.5812048 55.0629338,12.8029984 L55.0629338,16.4392841 L53.1384872,16.4392841 L53.1384872,12.6558714 C53.1384872,11.9491254 52.9757994,11.5812048 52.7091492,11.3162524 C52.4574397,11.0657444 52.0725089,10.9188238 51.6284377,10.9188238 C50.8143765,10.9188238 50.1480623,11.4340778 49.8816196,11.8019984 L49.8816196,16.4392841 L47.9569654,16.4392841 Z" id="Fill-1" fill="#231F20"></path>
            <path d="M62.5693962,11.9491873 C62.5102559,11.3163143 61.9329634,10.6978857 61.1481611,10.6978857 C60.348833,10.6978857 59.6974595,11.3014571 59.6084377,11.9491873 L62.5693962,11.9491873 Z M64.3608291,15.3056635 C63.6650484,16.1300286 62.5249891,16.586473 61.4148113,16.586473 C59.2681215,16.586473 57.6543172,15.1143778 57.6543172,12.876727 C57.6543172,10.8891714 59.0164121,9.15212381 61.1481611,9.15212381 C63.1319555,9.15212381 64.5384575,10.8155048 64.5384575,12.8030603 C64.5384575,12.9945524 64.5235168,13.1858381 64.4940504,13.3478222 L59.519831,13.3478222 C59.6233785,14.3486159 60.4376472,15.0407111 61.4590109,15.0407111 C62.2732796,15.0407111 62.9246532,14.5842667 63.2651769,14.216346 L64.3608291,15.3056635 Z" id="Fill-3" fill="#231F20"></path>
            <path d="M72.533419,16.4392841 C72.2817095,16.5276016 71.704417,16.5864111 71.3342194,16.5864111 C70.1796344,16.5864111 69.3356917,16.2036333 68.8470059,15.5559032 C68.4770158,15.0701571 68.3141206,14.4370778 68.3141206,13.421427 L68.3141206,10.9188238 L66.3155929,10.9188238 L66.3155929,9.29918889 L68.3141206,9.29918889 L68.3141206,7.31204603 L70.2387747,7.31204603 L70.2387747,9.29918889 L72.6075,9.29918889 L72.6075,10.9188238 L70.2387747,10.9188238 L70.2387747,13.6420143 C70.2387747,14.0838079 70.3128557,14.3487603 70.4755435,14.540046 C70.6681126,14.761046 70.9789625,14.8935222 71.4527075,14.8935222 C71.7340909,14.8935222 72.104081,14.8493635 72.2373024,14.8198556 L72.533419,16.4392841 Z" id="Fill-5" fill="#231F20"></path>
            <path d="M80.3063241,11.802081 C79.9066601,11.2721762 79.2698123,10.9187 78.5296245,10.9187 C77.4047134,10.9187 76.6792589,11.8462397 76.6792589,12.8767476 C76.6792589,13.9953667 77.4935277,14.8197317 78.5740316,14.8197317 C79.2994862,14.8197317 79.9361265,14.4664619 80.3063241,13.9367635 L80.3063241,11.802081 Z M82.2309783,16.0417317 C82.2309783,17.3225413 82.0087352,18.0880968 81.5793972,18.6916683 C80.9278162,19.5897 79.7732312,20.1196048 78.3964032,20.1196048 C76.9903162,20.1196048 75.6576877,19.4718746 74.9471739,18.6475095 L76.1611067,17.3962079 C76.5462451,17.8082873 77.2121443,18.4267159 78.3964032,18.4267159 C79.0183103,18.4267159 79.5362549,18.2352238 79.862253,17.852446 C80.1581621,17.5284778 80.3063241,17.0868905 80.3063241,16.1744143 L80.3063241,15.9387635 C79.7288241,16.3803508 79.1071245,16.5864937 78.3818775,16.5864937 C77.3158992,16.5864937 76.2943281,16.1151921 75.6576877,15.3793508 C75.095336,14.7316206 74.7546047,13.8482397 74.7546047,12.8767476 C74.7546047,10.7713667 76.324002,9.15214444 78.2781225,9.15214444 C79.0921838,9.15214444 79.8176383,9.41709683 80.3804051,9.87333492 L80.3804051,9.29927143 L82.2309783,9.29927143 L82.2309783,16.0417317 Z" id="Fill-7" fill="#231F20"></path>
            <path d="M88.8192925,5.83980635 L87.0425929,8.19528254 L85.7103794,8.19528254 L86.7464763,5.83980635 L88.8192925,5.83980635 Z M85.5622174,16.439346 L87.486664,16.439346 L87.486664,9.29925079 L85.5622174,9.29925079 L85.5622174,16.439346 Z" id="Fill-9" fill="#231F20"></path>
            <path d="M95.1856334,10.9924079 C95.0522045,10.9480429 94.7710287,10.9187413 94.4896453,10.9187413 C93.6459101,10.9187413 92.9798034,11.5221063 92.7430346,11.9492492 L92.7430346,16.4392016 L90.8181729,16.4392016 L90.8181729,9.2993127 L92.668746,9.2993127 L92.668746,10.0207095 C93.098084,9.49080476 93.8828864,9.15218571 94.7562955,9.15218571 C95.0374713,9.15218571 95.2003666,9.1814873 95.4074615,9.21099524 L95.1856334,10.9924079 Z" id="Fill-11" fill="#231F20"></path>
            <path d="M103.446706,5.83980635 L101.670006,8.19528254 L100.337792,8.19528254 L101.373889,5.83980635 L103.446706,5.83980635 Z M101.004107,14.8199175 C102.12881,14.8199175 102.898879,13.9513937 102.898879,12.876727 C102.898879,11.8020603 102.12881,10.9186794 101.004107,10.9186794 C99.8787806,10.9186794 99.1091265,11.8020603 99.1091265,12.876727 C99.1091265,13.9513937 99.8787806,14.8199175 101.004107,14.8199175 Z M101.004107,9.15212381 C103.180055,9.15212381 104.823534,10.8155048 104.823534,12.876727 C104.823534,14.9375365 103.180055,16.586473 101.004107,16.586473 C98.8277431,16.586473 97.1842648,14.9375365 97.1842648,12.876727 C97.1842648,10.8155048 98.8277431,9.15212381 101.004107,9.15212381 Z" id="Fill-13" fill="#231F20"></path>
            <path d="M0.120874506,12.9604635 L0.120874506,25.8814317 C7.29718874,25.8814317 13.1147283,20.0966381 13.1147283,12.9604635 L13.1147283,0.0392888889 C5.93841403,0.0392888889 0.120874506,5.82428889 0.120874506,12.9604635" id="Fill-15" fill="#00AEEF"></path>
            <path d="M26.1213231,12.9604635 L26.1213231,25.8814317 C33.2976374,25.8814317 39.1151769,20.0966381 39.1151769,12.9604635 L39.1151769,0.0392888889 C31.9388626,0.0392888889 26.1213231,5.82428889 26.1213231,12.9604635" id="Fill-17" fill="#FFE300"></path>
            <path d="M26.1084575,12.9604635 C26.1084575,5.82428889 20.290918,0.0392888889 13.1146038,0.0392888889 L13.1146038,12.9604635 C13.1146038,20.0966381 18.9321433,25.8814317 26.1084575,25.8814317 L26.1084575,12.9604635 Z" id="Fill-19" fill="#64C3A2"></path>
        </g>
    </g>
</svg>