<?xml version="1.0" encoding="UTF-8"?>
<svg width="98px" height="100px" viewBox="0 0 98 100" version="1.1" xmlns="http://www.w3.org/2000/svg" xmlns:xlink="http://www.w3.org/1999/xlink">
    <!-- Generator: Sketch 51.2 (57519) - http://www.bohemiancoding.com/sketch -->
    <title>Netgiro_Logo_alt_200</title>
    <desc>Created with Sketch.</desc>
    <defs></defs>
    <g id="Page-1" stroke="none" stroke-width="1" fill="none" fill-rule="evenodd">
        <g id="Netgiro_Logo_alt_200">
            <path d="M0.0597610323,32.1307042 L0.0597610323,64.2476056 C18.0642238,64.2476056 32.6597226,49.8683803 32.6597226,32.1307042 L32.6597226,0.0138028169 C14.6552597,0.0138028169 0.0597610323,14.3930282 0.0597610323,32.1307042" id="Fill-1" fill="#00AEEF"></path>
            <path d="M65.2922798,32.1307042 L65.2922798,64.2476056 C83.2967426,64.2476056 97.8922413,49.8683803 97.8922413,32.1307042 L97.8922413,0.0138028169 C79.8877785,0.0138028169 65.2922798,14.3930282 65.2922798,32.1307042" id="Fill-3" fill="#FFE300"></path>
            <path d="M65.2597913,32.1307042 C65.2597913,14.3930282 50.6642926,0.0138028169 32.6598298,0.0138028169 L32.6598298,32.1307042 C32.6598298,49.8683803 47.2553285,64.2476056 65.2597913,64.2476056 L65.2597913,32.1307042 Z" id="Fill-5" fill="#64C3A2"></path>
            <path d="M0.0144058694,93.5546127 L0.0144058694,81.3891197 L3.19713026,81.3891197 L3.19713026,82.3672887 C4.13925957,81.6148239 5.31013044,81.1384155 6.68543909,81.1384155 C8.39099336,81.1384155 9.94429153,81.8905282 10.9625489,83.0947535 C11.7774407,84.0479225 12.2356386,85.2771479 12.2356386,87.358838 L12.2356386,93.5546127 L8.92603417,93.5546127 L8.92603417,87.1077817 C8.92603417,85.9039085 8.64582576,85.2771479 8.18727041,84.8253873 C7.75444848,84.3989789 7.09252759,84.1482746 6.32874521,84.1482746 C4.92841796,84.1482746 3.7825657,85.0260915 3.32436776,85.6535563 L3.32436776,93.5546127 L0.0144058694,93.5546127 Z" id="Fill-7" fill="#231F20"></path>
            <path d="M25.1452048,85.9040493 C25.0433434,84.8255282 24.050462,83.7716549 22.7008868,83.7716549 C21.326293,83.7716549 20.2058167,84.8001761 20.0528458,85.9040493 L25.1452048,85.9040493 Z M28.2260677,91.6230634 C27.0294634,93.0276408 25.0687194,93.8051056 23.1594421,93.8051056 C19.4674104,93.8051056 16.6921319,91.297007 16.6921319,87.484331 C16.6921319,84.0980634 19.0345884,81.1382042 22.7008868,81.1382042 C26.1127102,81.1382042 28.5316522,83.9727113 28.5316522,87.3589789 C28.5316522,87.6853873 28.5059188,88.0107394 28.4551667,88.2871479 L19.9005897,88.2871479 C20.0785792,89.9924296 21.4789065,91.1716549 23.2355702,91.1716549 C24.6358974,91.1716549 25.7560163,90.393838 26.3418091,89.7670775 L28.2260677,91.6230634 Z" id="Fill-9" fill="#231F20"></path>
            <path d="M42.2814504,93.5546127 C41.8486285,93.7053169 40.8557472,93.8053169 40.2188449,93.8053169 C38.2330822,93.8053169 36.7820029,93.1532042 35.9417351,92.0496831 C35.3048328,91.2218662 35.0249818,90.1433451 35.0249818,88.4123592 L35.0249818,84.1482746 L31.5881398,84.1482746 L31.5881398,81.3891197 L35.0249818,81.3891197 L35.0249818,78.0028521 L38.3349437,78.0028521 L38.3349437,81.3891197 L42.4086879,81.3891197 L42.4086879,84.1482746 L38.3349437,84.1482746 L38.3349437,88.7884155 C38.3349437,89.5412324 38.4625386,89.9926408 38.7423896,90.3186972 C39.07335,90.6951056 39.6080334,90.9208099 40.4225678,90.9208099 C40.9064992,90.9208099 41.5430441,90.8458099 41.7721431,90.7951056 L42.2814504,93.5546127 Z" id="Fill-11" fill="#231F20"></path>
            <path d="M55.6495362,85.6533803 C54.9622393,84.7505634 53.8667817,84.1484507 52.5940493,84.1484507 C50.6590387,84.1484507 49.4113249,85.7283803 49.4113249,87.4843662 C49.4113249,89.3903521 50.8120096,90.7952817 52.6705348,90.7952817 C53.9178911,90.7952817 55.0126339,90.193169 55.6495362,89.2903521 L55.6495362,85.6533803 Z M58.9594981,92.8773239 C58.9594981,95.0597183 58.5774282,96.3639437 57.8390219,97.3924648 C56.7185456,98.9227465 54.7327829,99.8252113 52.364593,99.8252113 C49.9463658,99.8252113 47.6546612,98.7216901 46.4323235,97.3171127 L48.5206625,95.1847183 C49.1825834,95.8871831 50.3277208,96.9407042 52.364593,96.9407042 C53.4343172,96.9407042 54.325337,96.6146479 54.8857539,95.9625352 C55.3947038,95.4104225 55.6495362,94.6579577 55.6495362,93.1030282 L55.6495362,92.7019718 C54.6562975,93.4540845 53.5869307,93.8051408 52.3395743,93.8051408 C50.5060678,93.8051408 48.749404,93.0026761 47.6546612,91.7488028 C46.6871559,90.6449296 46.1013631,89.1396479 46.1013631,87.4843662 C46.1013631,83.8973944 48.8005135,81.1382394 52.16087,81.1382394 C53.5615547,81.1382394 54.808911,81.5896479 55.7767737,82.3671127 L55.7767737,81.3889437 L58.9594981,81.3889437 L58.9594981,92.8773239 Z" id="Fill-13" fill="#231F20"></path>
            <path d="M70.2902114,75.4944014 L67.2347245,79.5077817 L64.9433774,79.5077817 L66.7254171,75.4944014 L70.2902114,75.4944014 Z M64.688545,93.5546127 L67.9985069,93.5546127 L67.9985069,81.3891197 L64.688545,81.3891197 L64.688545,93.5546127 Z" id="Fill-15" fill="#231F20"></path>
            <path d="M81.2391765,84.2738028 C81.0097201,84.1980986 80.5261461,84.1484507 80.0422148,84.1484507 C78.5914929,84.1484507 77.4456406,85.1762676 77.0381947,85.9040845 L77.0381947,93.5544366 L73.7282328,93.5544366 L73.7282328,81.3889437 L76.9109572,81.3889437 L76.9109572,82.618169 C77.6493636,81.715 78.9985814,81.1382394 80.5007701,81.1382394 C80.9847015,81.1382394 81.2645525,81.1882394 81.620889,81.2385915 L81.2391765,84.2738028 Z" id="Fill-17" fill="#231F20"></path>
            <path d="M95.4467081,75.4944014 L92.3915786,79.5077817 L90.099874,79.5077817 L91.8819138,75.4944014 L95.4467081,75.4944014 Z M91.2457263,90.7951056 C93.1803795,90.7951056 94.5045787,89.3155282 94.5045787,87.4845423 C94.5045787,85.6535563 93.1803795,84.1482746 91.2457263,84.1482746 C89.3103582,84.1482746 87.9865164,85.6535563 87.9865164,87.4845423 C87.9865164,89.3155282 89.3103582,90.7951056 91.2457263,90.7951056 Z M91.2457263,81.1384155 C94.9881527,81.1384155 97.8145406,83.9725704 97.8145406,87.4845423 C97.8145406,90.9958099 94.9881527,93.8053169 91.2457263,93.8053169 C87.5029425,93.8053169 84.6765546,90.9958099 84.6765546,87.4845423 C84.6765546,83.9725704 87.5029425,81.1384155 91.2457263,81.1384155 Z" id="Fill-19" fill="#231F20"></path>
        </g>
    </g>
</svg>