<?xml version="1.0" encoding="UTF-8"?>
<svg width="74px" height="75px" viewBox="0 0 74 75" version="1.1" xmlns="http://www.w3.org/2000/svg" xmlns:xlink="http://www.w3.org/1999/xlink">
    <!-- Generator: Sketch 51.2 (57519) - http://www.bohemiancoding.com/sketch -->
    <title>Netgiro_Logo_alt_150</title>
    <desc>Created with Sketch.</desc>
    <defs></defs>
    <g id="Page-1" stroke="none" stroke-width="1" fill="none" fill-rule="evenodd">
        <g id="Netgiro_Logo_alt_150">
            <path d="M0.0451256774,24.0980282 L0.0451256774,48.1857042 C13.6403323,48.1857042 24.6614232,37.4012852 24.6614232,24.0980282 L24.6614232,0.0103521127 C11.0662165,0.0103521127 0.0451256774,10.7947711 0.0451256774,24.0980282" id="Fill-1" fill="#00AEEF"></path>
            <path d="M49.3023337,24.0980282 L49.3023337,48.1857042 C62.8975403,48.1857042 73.9186312,37.4012852 73.9186312,24.0980282 L73.9186312,0.0103521127 C60.3234246,0.0103521127 49.3023337,10.7947711 49.3023337,24.0980282" id="Fill-3" fill="#FFE300"></path>
            <path d="M49.2778016,24.0980282 C49.2778016,10.7947711 38.2567107,0.0103521127 24.6615041,0.0103521127 L24.6615041,24.0980282 C24.6615041,37.4012852 35.682595,48.1857042 49.2778016,48.1857042 L49.2778016,24.0980282 Z" id="Fill-5" fill="#64C3A2"></path>
            <path d="M0.0108779014,70.1659595 L0.0108779014,61.0418398 L2.41415959,61.0418398 L2.41415959,61.7754665 C3.12556335,61.211118 4.00969034,60.8538116 5.0481887,60.8538116 C6.33605621,60.8538116 7.50895483,61.4178961 8.27784304,62.3210651 C8.89316951,63.0359419 9.23915572,63.9578609 9.23915572,65.5191285 L9.23915572,70.1659595 L6.74006662,70.1659595 L6.74006662,65.3308363 C6.74006662,64.4279313 6.52848067,63.9578609 6.18222459,63.6190405 C5.85539987,63.2992342 5.35558205,63.111206 4.77884843,63.111206 C3.72145846,63.111206 2.85622308,63.7695687 2.51023688,64.2401673 L2.51023688,70.1659595 L0.0108779014,70.1659595 Z" id="Fill-7" fill="#231F20"></path>
            <path d="M18.9871955,64.428037 C18.9102797,63.6191461 18.1605529,62.8287412 17.1414859,62.8287412 C16.1035273,62.8287412 15.2574534,63.600132 15.1419448,64.428037 L18.9871955,64.428037 Z M21.3135614,68.7172975 C20.410003,69.7707306 18.9294412,70.3538292 17.487742,70.3538292 C14.6998813,70.3538292 12.6042628,68.4727553 12.6042628,65.6132482 C12.6042628,63.0735475 14.3730566,60.8536532 17.1414859,60.8536532 C19.7177607,60.8536532 21.5443088,62.9795335 21.5443088,65.5192342 C21.5443088,65.7640405 21.5248774,66.0080546 21.4865545,66.2153609 L15.0269759,66.2153609 C15.1613761,67.4943222 16.2187661,68.3787412 17.5452265,68.3787412 C18.6026164,68.3787412 19.4484205,67.7953785 19.8907538,67.3253081 L21.3135614,68.7172975 Z" id="Fill-9" fill="#231F20"></path>
            <path d="M31.9268095,70.1659595 C31.5999848,70.2789877 30.8502581,70.3539877 30.3693319,70.3539877 C28.8698784,70.3539877 27.7741655,69.8649032 27.1396775,69.0372623 C26.6587513,68.4163996 26.4474352,67.6075088 26.4474352,66.3092694 L26.4474352,63.111206 L23.8522688,63.111206 L23.8522688,61.0418398 L26.4474352,61.0418398 L26.4474352,58.5021391 L28.9467942,58.5021391 L28.9467942,61.0418398 L32.0228868,61.0418398 L32.0228868,63.111206 L28.9467942,63.111206 L28.9467942,66.5913116 C28.9467942,67.1559243 29.0431414,67.4944806 29.2544574,67.7390229 C29.5043664,68.0213292 29.9081069,68.1906074 30.5231635,68.1906074 C30.888581,68.1906074 31.3692374,68.1343574 31.5422305,68.0963292 L31.9268095,70.1659595 Z" id="Fill-11" fill="#231F20"></path>
            <path d="M42.0210784,64.2400352 C41.5020991,63.5629225 40.6749168,63.111338 39.713874,63.111338 C38.2527435,63.111338 37.3105923,64.2962852 37.3105923,65.6132746 C37.3105923,67.0427641 38.3682521,68.0964613 39.7716283,68.0964613 C40.7135096,68.0964613 41.5401522,67.6448768 42.0210784,66.9677641 L42.0210784,64.2400352 Z M44.5204374,69.657993 C44.5204374,71.2947887 44.2319356,72.2729577 43.6743635,73.0443486 C42.8282896,74.1920599 41.3288361,74.8689085 39.540611,74.8689085 C37.7146027,74.8689085 35.9841319,74.0412676 35.0611422,72.9878345 L36.6380513,71.3885387 C37.1378691,71.9153873 38.0025647,72.7055282 39.540611,72.7055282 C40.3483619,72.7055282 41.0211729,72.4609859 41.4443448,71.9719014 C41.8286539,71.5578169 42.0210784,70.9934683 42.0210784,69.8272711 L42.0210784,69.5264789 C41.2710818,70.0905634 40.4636007,70.3538556 39.5217194,70.3538556 C38.1372348,70.3538556 36.8107745,69.752007 35.9841319,68.8116021 C35.2535667,67.9836972 34.8112333,66.8547359 34.8112333,65.6132746 C34.8112333,62.9230458 36.8493673,60.8536796 39.3867794,60.8536796 C40.4444392,60.8536796 41.3863205,61.1922359 42.1171557,61.7753345 L42.1171557,61.0417077 L44.5204374,61.0417077 L44.5204374,69.657993 Z" id="Fill-13" fill="#231F20"></path>
            <path d="M53.0762821,56.6208011 L50.7690777,59.6308363 L49.0388768,59.6308363 L50.3844986,56.6208011 L53.0762821,56.6208011 Z M48.8464523,70.1659595 L51.3458113,70.1659595 L51.3458113,61.0418398 L48.8464523,61.0418398 L48.8464523,70.1659595 Z" id="Fill-15" fill="#231F20"></path>
            <path d="M61.3438679,63.2053521 C61.170605,63.1485739 60.8054573,63.111338 60.4400397,63.111338 C59.3445967,63.111338 58.4793613,63.8822007 58.1716981,64.4280634 L58.1716981,70.1658275 L55.6723391,70.1658275 L55.6723391,61.0417077 L58.0756208,61.0417077 L58.0756208,61.9636268 C58.6331929,61.28625 59.65199,60.8536796 60.7862958,60.8536796 C61.1517134,60.8536796 61.3630294,60.8911796 61.6320998,60.9289437 L61.3438679,63.2053521 Z" id="Fill-17" fill="#231F20"></path>
            <path d="M72.072004,56.6208011 L69.7650695,59.6308363 L68.0345988,59.6308363 L69.3802206,56.6208011 L72.072004,56.6208011 Z M68.8998341,68.0963292 C70.3606948,68.0963292 71.3606003,66.9866461 71.3606003,65.6134067 C71.3606003,64.2401673 70.3606948,63.111206 68.8998341,63.111206 C67.4384338,63.111206 66.4387981,64.2401673 66.4387981,65.6134067 C66.4387981,66.9866461 67.4384338,68.0963292 68.8998341,68.0963292 Z M68.8998341,60.8538116 C71.725748,60.8538116 73.8599593,62.9794278 73.8599593,65.6134067 C73.8599593,68.2468574 71.725748,70.3539877 68.8998341,70.3539877 C66.0736504,70.3539877 63.9394392,68.2468574 63.9394392,65.6134067 C63.9394392,62.9794278 66.0736504,60.8538116 68.8998341,60.8538116 Z" id="Fill-19" fill="#231F20"></path>
        </g>
    </g>
</svg>