<?xml version="1.0" encoding="UTF-8"?>
<svg width="16px" height="16px" viewBox="0 0 16 16" version="1.1" xmlns="http://www.w3.org/2000/svg" xmlns:xlink="http://www.w3.org/1999/xlink">
    <!-- Generator: Sketch 51.3 (57544) - http://www.bohemiancoding.com/sketch -->
    <title>Netgiro_Logo_alt_16</title>
    <desc>Created with Sketch.</desc>
    <defs></defs>
    <g id="Page-1" stroke="none" stroke-width="1" fill="none" fill-rule="evenodd">
        <g id="Netgiro_Logo_alt_16">
            <path d="M0.00975690323,5.14091268 L0.00975690323,10.2796169 C2.94926104,10.2796169 5.3321996,7.97894085 5.3321996,5.14091268 L5.3321996,0.0022084507 C2.39269547,0.0022084507 0.00975690323,2.30288451 0.00975690323,5.14091268" id="Fill-1" fill="#00AEEF"></path>
            <path d="M10.659964,5.14091268 L10.659964,10.2796169 C13.5994682,10.2796169 15.9824067,7.97894085 15.9824067,5.14091268 L15.9824067,0.0022084507 C13.0429026,0.0022084507 10.659964,2.30288451 10.659964,5.14091268" id="Fill-3" fill="#FFE300"></path>
            <path d="M10.6546598,5.14091268 C10.6546598,2.30288451 8.27172124,0.0022084507 5.33221711,0.0022084507 L5.33221711,5.14091268 C5.33221711,7.97894085 7.71515567,10.2796169 10.6546598,10.2796169 L10.6546598,5.14091268 Z" id="Fill-5" fill="#64C3A2"></path>
            <path d="M0.00235197867,14.968738 L0.00235197867,13.0222592 L0.521980451,13.0222592 L0.521980451,13.1787662 C0.675797481,13.0583718 0.866960073,12.9821465 1.09150026,12.9821465 C1.3699581,12.9821465 1.6235578,13.1024845 1.7898039,13.2951606 C1.92284746,13.4476676 1.99765529,13.6443437 1.99765529,13.9774141 L1.99765529,14.968738 L1.4573117,14.968738 L1.4573117,13.9372451 C1.4573117,13.7446254 1.41156339,13.6443437 1.33669721,13.572062 C1.26603241,13.5038366 1.15796369,13.4637239 1.03326452,13.4637239 C0.804639667,13.4637239 0.617561747,13.6041746 0.542753919,13.704569 L0.542753919,14.968738 L0.00235197867,14.968738 Z" id="Fill-7" fill="#231F20"></path>
            <path d="M4.10533956,13.7446479 C4.08870912,13.5720845 3.92660604,13.4034648 3.70626723,13.4034648 C3.48184375,13.4034648 3.29890885,13.5680282 3.27393401,13.7446479 L4.10533956,13.7446479 Z M4.60833759,14.6596901 C4.41297362,14.8844225 4.09285214,15.0088169 3.78113341,15.0088169 C3.17835271,15.0088169 2.72524602,14.6075211 2.72524602,13.997493 C2.72524602,13.4556901 3.10768791,12.9821127 3.70626723,12.9821127 C4.26329962,12.9821127 4.65822893,13.4356338 4.65822893,13.9774366 C4.65822893,14.029662 4.65402755,14.0817183 4.6457415,14.1259437 L3.24907587,14.1259437 C3.27813538,14.3987887 3.50676024,14.5874648 3.79356248,14.5874648 C4.02218734,14.5874648 4.20506388,14.4630141 4.30070353,14.3627324 L4.60833759,14.6596901 Z" id="Fill-9" fill="#231F20"></path>
            <path d="M6.90309395,14.968738 C6.83242915,14.9928507 6.67032607,15.0088507 6.56634202,15.0088507 C6.24213587,15.0088507 6.00522497,14.9045127 5.86803838,14.7279493 C5.76405433,14.5954986 5.71836437,14.4229352 5.71836437,14.1459775 L5.71836437,13.4637239 L5.15724732,13.4637239 L5.15724732,13.0222592 L5.71836437,13.0222592 L5.71836437,12.4804563 L6.25876632,12.4804563 L6.25876632,13.0222592 L6.92386742,13.0222592 L6.92386742,13.4637239 L6.25876632,13.4637239 L6.25876632,14.2061465 C6.25876632,14.3265972 6.27959814,14.3988225 6.3252881,14.4509915 C6.37932245,14.5112169 6.4666177,14.5473296 6.59960291,14.5473296 C6.67861212,14.5473296 6.78253781,14.5353296 6.81994172,14.5272169 L6.90309395,14.968738 Z" id="Fill-11" fill="#231F20"></path>
            <path d="M9.08563857,13.7045408 C8.97342683,13.5600901 8.7945766,13.4637521 8.58678356,13.4637521 C8.27086346,13.4637521 8.06715509,13.7165408 8.06715509,13.9974986 C8.06715509,14.3024563 8.2958383,14.5272451 8.59927099,14.5272451 C8.802921,14.5272451 8.98165452,14.430907 9.08563857,14.2864563 L9.08563857,13.7045408 Z M9.62604051,14.8603718 C9.62604051,15.2095549 9.56366175,15.418231 9.44310561,15.5827944 C9.26017072,15.8276394 8.93596456,15.9720338 8.5493213,15.9720338 C8.15450869,15.9720338 7.78035285,15.7954704 7.58078751,15.570738 L7.92174081,15.2295549 C8.02980953,15.3419493 8.21677075,15.5105127 8.5493213,15.5105127 C8.72397015,15.5105127 8.86944278,15.4583437 8.96093941,15.3540056 C9.04403328,15.2656676 9.08563857,15.1452732 9.08563857,14.8964845 L9.08563857,14.8323155 C8.92347714,14.9526535 8.74888664,15.0088225 8.54523663,15.0088225 C8.24588861,15.0088225 7.95908637,14.8804282 7.78035285,14.6798085 C7.6223928,14.5031887 7.52675315,14.2623437 7.52675315,13.9974986 C7.52675315,13.4235831 7.96743077,12.9821183 8.51606041,12.9821183 C8.74474362,12.9821183 8.94839363,13.0543437 9.10641204,13.178738 L9.10641204,13.022231 L9.62604051,13.022231 L9.62604051,14.8603718 Z" id="Fill-13" fill="#231F20"></path>
            <path d="M11.4759529,12.0791042 L10.9770979,12.7212451 L10.6030004,12.7212451 L10.8939457,12.0791042 L11.4759529,12.0791042 Z M10.5613951,14.968738 L11.101797,14.968738 L11.101797,13.0222592 L10.5613951,13.0222592 L10.5613951,14.968738 Z" id="Fill-15" fill="#231F20"></path>
            <path d="M13.263539,13.4838085 C13.2260767,13.4716958 13.1471259,13.4637521 13.0681167,13.4637521 C12.8312641,13.4637521 12.6441862,13.6282028 12.5776644,13.7446535 L12.5776644,14.9687099 L12.0372625,14.9687099 L12.0372625,13.022231 L12.556891,13.022231 L12.556891,13.218907 C12.6774471,13.0744 12.8977276,12.9821183 13.1429829,12.9821183 C13.2219921,12.9821183 13.267682,12.9901183 13.3258594,12.9981746 L13.263539,13.4838085 Z" id="Fill-17" fill="#231F20"></path>
            <path d="M15.583136,12.0791042 L15.0843394,12.7212451 L14.7101835,12.7212451 L15.0011288,12.0791042 L15.583136,12.0791042 Z M14.8972614,14.5272169 C15.2131232,14.5272169 15.429319,14.2904845 15.429319,13.9975268 C15.429319,13.704569 15.2131232,13.4637239 14.8972614,13.4637239 C14.581283,13.4637239 14.3651455,13.704569 14.3651455,13.9975268 C14.3651455,14.2904845 14.581283,14.5272169 14.8972614,14.5272169 Z M14.8972614,12.9821465 C15.5082698,12.9821465 15.9697209,13.4356113 15.9697209,13.9975268 C15.9697209,14.5593296 15.5082698,15.0088507 14.8972614,15.0088507 C14.2861947,15.0088507 13.8247436,14.5593296 13.8247436,13.9975268 C13.8247436,13.4356113 14.2861947,12.9821465 14.8972614,12.9821465 Z" id="Fill-19" fill="#231F20"></path>
        </g>
    </g>
</svg>