<?xml version="1.0" encoding="UTF-8"?>
<svg width="147px" height="150px" viewBox="0 0 147 150" version="1.1" xmlns="http://www.w3.org/2000/svg" xmlns:xlink="http://www.w3.org/1999/xlink">
    <!-- Generator: Sketch 51.2 (57519) - http://www.bohemiancoding.com/sketch -->
    <title>Netgiro_Logo_alt_300</title>
    <desc>Created with Sketch.</desc>
    <defs></defs>
    <g id="Page-1" stroke="none" stroke-width="1" fill="none" fill-rule="evenodd">
        <g id="Netgiro_Logo_alt_300">
            <path d="M0.0896415484,48.1960563 L0.0896415484,96.3714085 C27.0963358,96.3714085 48.9895838,74.8025704 48.9895838,48.1960563 L48.9895838,0.0207042254 C21.9828896,0.0207042254 0.0896415484,21.5895423 0.0896415484,48.1960563" id="Fill-1" fill="#00AEEF"></path>
            <path d="M97.9384196,48.1960563 L97.9384196,96.3714085 C124.945114,96.3714085 146.838362,74.8025704 146.838362,48.1960563 L146.838362,0.0207042254 C119.831668,0.0207042254 97.9384196,21.5895423 97.9384196,48.1960563" id="Fill-3" fill="#FFE300"></path>
            <path d="M97.889687,48.1960563 C97.889687,21.5895423 75.9964389,0.0207042254 48.9897447,0.0207042254 L48.9897447,48.1960563 C48.9897447,74.8025704 70.8829927,96.3714085 97.889687,96.3714085 L97.889687,48.1960563 Z" id="Fill-5" fill="#64C3A2"></path>
            <path d="M0.0216088041,140.331919 L0.0216088041,122.08368 L4.79569539,122.08368 L4.79569539,123.550933 C6.20888936,122.422236 7.96519567,121.707623 10.0281586,121.707623 C12.58649,121.707623 14.9164373,122.835792 16.4438233,124.64213 C17.6661611,126.071884 18.353458,127.915722 18.353458,131.038257 L18.353458,140.331919 L13.3890513,140.331919 L13.3890513,130.661673 C13.3890513,128.855863 12.9687386,127.915722 12.2809056,127.238081 C11.6316727,126.598468 10.6387914,126.222412 9.49311782,126.222412 C7.39262694,126.222412 5.67384855,127.539137 4.98655164,128.480335 L4.98655164,140.331919 L0.0216088041,140.331919 Z" id="Fill-7" fill="#231F20"></path>
            <path d="M37.7178072,128.856074 C37.565015,127.238292 36.075693,125.657482 34.0513302,125.657482 C31.9894394,125.657482 30.3087251,127.200264 30.0792687,128.856074 L37.7178072,128.856074 Z M42.3391016,137.434595 C40.5441952,139.541461 37.6030791,140.707658 34.7391632,140.707658 C29.2011155,140.707658 25.0381978,136.945511 25.0381978,131.226496 C25.0381978,126.147095 28.5518827,121.707306 34.0513302,121.707306 C39.1690652,121.707306 42.7974783,125.959067 42.7974783,131.038468 C42.7974783,131.528081 42.7588781,132.016109 42.6827501,132.430722 L29.8508845,132.430722 C30.1178688,134.988644 32.2183597,136.757482 34.8533553,136.757482 C36.9538462,136.757482 38.6340244,135.590757 39.5127137,134.650616 L42.3391016,137.434595 Z" id="Fill-9" fill="#231F20"></path>
            <path d="M63.4221757,140.331919 C62.7729428,140.557975 61.2836208,140.707975 60.3282673,140.707975 C57.3496233,140.707975 55.1730044,139.729806 53.9126026,138.074525 C52.9572492,136.832799 52.5374727,135.215018 52.5374727,132.618539 L52.5374727,126.222412 L47.3822097,126.222412 L47.3822097,122.08368 L52.5374727,122.08368 L52.5374727,117.004278 L57.5024155,117.004278 L57.5024155,122.08368 L63.6130319,122.08368 L63.6130319,126.222412 L57.5024155,126.222412 L57.5024155,133.182623 C57.5024155,134.311849 57.6938079,134.988961 58.1135844,135.478046 C58.6100251,136.042658 59.4120502,136.381215 60.6338518,136.381215 C61.3597488,136.381215 62.3145661,136.268715 62.6582146,136.192658 L63.4221757,140.331919 Z" id="Fill-11" fill="#231F20"></path>
            <path d="M83.4743044,128.48007 C82.443359,127.125845 80.8001725,126.222676 78.891074,126.222676 C75.988558,126.222676 74.1169874,128.59257 74.1169874,131.226549 C74.1169874,134.085528 76.2180144,136.192923 79.0058022,136.192923 C80.8768367,136.192923 82.5189509,135.289754 83.4743044,133.935528 L83.4743044,128.48007 Z M88.4392472,139.315986 C88.4392472,142.589577 87.8661423,144.545915 86.7585328,146.088697 C85.0778184,148.38412 82.0991744,149.737817 78.5468894,149.737817 C74.9195486,149.737817 71.4819918,148.082535 69.6484853,145.975669 L72.7809937,142.777077 C73.7738751,143.830775 75.4915812,145.411056 78.5468894,145.411056 C80.1514758,145.411056 81.4880056,144.921972 82.3286308,143.943803 C83.0920558,143.115634 83.4743044,141.986937 83.4743044,139.654542 L83.4743044,139.052958 C81.9844462,140.181127 80.380396,140.707711 78.5093615,140.707711 C75.7591016,140.707711 73.1241061,139.504014 71.4819918,137.623204 C70.0307338,135.967394 69.1520446,133.709472 69.1520446,131.226549 C69.1520446,125.846092 73.2007702,121.707359 78.241305,121.707359 C80.342332,121.707359 82.2133665,122.384472 83.6651606,123.550669 L83.6651606,122.083415 L88.4392472,122.083415 L88.4392472,139.315986 Z" id="Fill-13" fill="#231F20"></path>
            <path d="M105.435317,113.241602 L100.852087,119.261673 L97.4150661,119.261673 L100.088126,113.241602 L105.435317,113.241602 Z M97.0328175,140.331919 L101.99776,140.331919 L101.99776,122.08368 L97.0328175,122.08368 L97.0328175,140.331919 Z" id="Fill-15" fill="#231F20"></path>
            <path d="M121.858765,126.410704 C121.51458,126.297148 120.789219,126.222676 120.063322,126.222676 C117.887239,126.222676 116.168461,127.764401 115.557292,128.856127 L115.557292,140.331655 L110.592349,140.331655 L110.592349,122.083415 L115.366436,122.083415 L115.366436,123.927254 C116.474045,122.5725 118.497872,121.707359 120.751155,121.707359 C121.477052,121.707359 121.896829,121.782359 122.431333,121.857887 L121.858765,126.410704 Z" id="Fill-17" fill="#231F20"></path>
            <path d="M143.170062,113.241602 L138.587368,119.261673 L135.149811,119.261673 L137.822871,113.241602 L143.170062,113.241602 Z M136.868589,136.192658 C139.770569,136.192658 141.756868,133.973292 141.756868,131.226813 C141.756868,128.480335 139.770569,126.222412 136.868589,126.222412 C133.965537,126.222412 131.979775,128.480335 131.979775,131.226813 C131.979775,133.973292 133.965537,136.192658 136.868589,136.192658 Z M136.868589,121.707623 C142.482229,121.707623 146.721811,125.958856 146.721811,131.226813 C146.721811,136.493715 142.482229,140.707975 136.868589,140.707975 C131.254414,140.707975 127.014832,136.493715 127.014832,131.226813 C127.014832,125.958856 131.254414,121.707623 136.868589,121.707623 Z" id="Fill-19" fill="#231F20"></path>
        </g>
    </g>
</svg>