<?xml version="1.0" encoding="UTF-8"?>
<svg width="34px" height="34px" viewBox="0 0 34 34" version="1.1" xmlns="http://www.w3.org/2000/svg" xmlns:xlink="http://www.w3.org/1999/xlink">
    <!-- Generator: Sketch 51.2 (57519) - http://www.bohemiancoding.com/sketch -->
    <title>Netgiro_Logo_alt_70</title>
    <desc>Created with Sketch.</desc>
    <defs></defs>
    <g id="Page-1" stroke="none" stroke-width="1" fill="none" fill-rule="evenodd">
        <g id="Netgiro_Logo_alt_70">
            <path d="M0.0207334194,10.9244394 L0.0207334194,21.8441859 C6.2671797,21.8441859 11.3309242,16.9552493 11.3309242,10.9244394 L11.3309242,0.00469295775 C5.08447787,0.00469295775 0.0207334194,4.89362958 0.0207334194,10.9244394" id="Fill-1" fill="#00AEEF"></path>
            <path d="M22.6524236,10.9244394 L22.6524236,21.8441859 C28.8988699,21.8441859 33.9626143,16.9552493 33.9626143,10.9244394 L33.9626143,0.00469295775 C27.716168,0.00469295775 22.6524236,4.89362958 22.6524236,10.9244394" id="Fill-3" fill="#FFE300"></path>
            <path d="M22.6411521,10.9244394 C22.6411521,4.89362958 17.5774076,0.00469295775 11.3309614,0.00469295775 L11.3309614,10.9244394 C11.3309614,16.9552493 16.3947058,21.8441859 22.6411521,21.8441859 L22.6411521,10.9244394 Z" id="Fill-5" fill="#64C3A2"></path>
            <path d="M0.00499795468,31.8085683 L0.00499795468,27.6723007 L1.10920846,27.6723007 L1.10920846,28.0048782 C1.43606965,27.7490401 1.84229015,27.5870613 2.31943805,27.5870613 C2.91116096,27.5870613 3.45006033,27.8427796 3.80333329,28.2522162 C4.08605086,28.5762937 4.24501749,28.9942303 4.24501749,29.7020049 L4.24501749,31.8085683 L3.09678737,31.8085683 L3.09678737,29.6166458 C3.09678737,29.2073289 2.9995722,28.9942303 2.84048157,28.8406317 C2.69031886,28.6956528 2.46067284,28.6104134 2.19568711,28.6104134 C1.70985929,28.6104134 1.31231871,28.9088711 1.15335208,29.1222092 L1.15335208,31.8085683 L0.00499795468,31.8085683 Z" id="Fill-7" fill="#FFFFFF"></path>
            <path d="M8.72384657,29.2073768 C8.68850688,28.8406796 8.34403784,28.4823627 7.87581787,28.4823627 C7.39891797,28.4823627 7.01018131,28.8320599 6.95710977,29.2073768 L8.72384657,29.2073768 Z M9.79271738,31.1518415 C9.37756895,31.6293979 8.6973108,31.8937359 8.0349085,31.8937359 C6.75399951,31.8937359 5.79114779,31.0409824 5.79114779,29.7446725 C5.79114779,28.5933415 6.60383681,27.5869894 7.87581787,27.5869894 C9.05951169,27.5869894 9.89873647,28.5507218 9.89873647,29.7020528 C9.89873647,29.8130317 9.88980855,29.9236514 9.8722007,30.0176303 L6.90428622,30.0176303 C6.96603769,30.5974261 7.45186551,30.9983627 8.06132027,30.9983627 C8.54714809,30.9983627 8.93576075,30.7339049 9.138995,30.5208063 L9.79271738,31.1518415 Z" id="Fill-9" fill="#FFFFFF"></path>
            <path d="M14.6690746,31.8085683 C14.5189119,31.8598077 14.1744429,31.8938077 13.9534768,31.8938077 C13.2645387,31.8938077 12.7611031,31.6720894 12.4695816,31.2968923 C12.2486155,31.0154345 12.1515243,30.6487373 12.1515243,30.0602021 L12.1515243,28.6104134 L10.9591505,28.6104134 L10.9591505,27.6723007 L12.1515243,27.6723007 L12.1515243,26.5209697 L13.2998784,26.5209697 L13.2998784,27.6723007 L14.7132183,27.6723007 L14.7132183,28.6104134 L13.2998784,28.6104134 L13.2998784,30.1880613 C13.2998784,30.444019 13.344146,30.5974979 13.4412372,30.708357 C13.5560602,30.8363359 13.7415626,30.9130754 14.0241562,30.9130754 C14.1920507,30.9130754 14.4128928,30.8875754 14.4923762,30.8703359 L14.6690746,31.8085683 Z" id="Fill-11" fill="#FFFFFF"></path>
            <path d="M19.306982,29.1221493 C19.068532,28.8151915 18.6884753,28.6104732 18.2469151,28.6104732 C17.5755848,28.6104732 17.1427046,29.1476493 17.1427046,29.7446845 C17.1427046,30.3927197 17.6286564,30.8703958 18.2734508,30.8703958 C18.7062071,30.8703958 19.0860159,30.6656775 19.306982,30.3587197 L19.306982,29.1221493 Z M20.4553361,31.5782901 C20.4553361,32.3203042 20.3227812,32.7637408 20.0665994,33.113438 C19.6778628,33.6337338 18.9889247,33.9405718 18.1673078,33.9405718 C17.328331,33.9405718 16.5332498,33.5653746 16.1091735,33.0878183 L16.8336992,32.3628042 C17.0633453,32.6016423 17.4606378,32.9598394 18.1673078,32.9598394 C18.5384366,32.9598394 18.8475659,32.8489803 19.0419962,32.627262 C19.2185707,32.4395437 19.306982,32.1837056 19.306982,31.6550296 L19.306982,31.5186704 C18.9623889,31.7743887 18.5913841,31.8937479 18.1586278,31.8937479 C17.5225133,31.8937479 16.9130585,31.6209099 16.5332498,31.194593 C16.1975847,30.8192761 15.9943504,30.3074803 15.9943504,29.7446845 C15.9943504,28.5251141 16.9307904,27.5870014 18.0966284,27.5870014 C18.5825802,27.5870014 19.0153365,27.7404803 19.3511256,28.0048183 L19.3511256,27.6722408 L20.4553361,27.6722408 L20.4553361,31.5782901 Z" id="Fill-13" fill="#FFFFFF"></path>
            <path d="M24.3863999,25.6680965 L23.326333,27.0326458 L22.5313758,27.0326458 L23.1496345,25.6680965 L24.3863999,25.6680965 Z M22.4429646,31.8085683 L23.5913187,31.8085683 L23.5913187,27.6723007 L22.4429646,27.6723007 L22.4429646,31.8085683 Z" id="Fill-15" fill="#FFFFFF"></path>
            <path d="M28.1850204,28.653093 C28.1054131,28.6273535 27.9376425,28.6104732 27.769748,28.6104732 C27.2664363,28.6104732 26.8688957,28.959931 26.7275369,29.2073887 L26.7275369,31.8085085 L25.5791828,31.8085085 L25.5791828,27.6722408 L26.6833933,27.6722408 L26.6833933,28.0901775 C26.9395751,27.7831 27.4076711,27.5870014 27.9288386,27.5870014 C28.0967332,27.5870014 28.1938243,27.6040014 28.3174513,27.6211211 L28.1850204,28.653093 Z" id="Fill-17" fill="#FFFFFF"></path>
            <path d="M33.114164,25.6680965 L32.0542211,27.0326458 L31.25914,27.0326458 L31.8773987,25.6680965 L33.114164,25.6680965 Z M31.6566806,30.8703359 C32.3278868,30.8703359 32.7873028,30.3672796 32.7873028,29.7447444 C32.7873028,29.1222092 32.3278868,28.6104134 31.6566806,28.6104134 C30.9852263,28.6104134 30.5259343,29.1222092 30.5259343,29.7447444 C30.5259343,30.3672796 30.9852263,30.8703359 31.6566806,30.8703359 Z M31.6566806,27.5870613 C32.9550734,27.5870613 33.935657,28.5506739 33.935657,29.7447444 C33.935657,30.9385754 32.9550734,31.8938077 31.6566806,31.8938077 C30.3581637,31.8938077 29.3775802,30.9385754 29.3775802,29.7447444 C29.3775802,28.5506739 30.3581637,27.5870613 31.6566806,27.5870613 Z" id="Fill-19" fill="#FFFFFF"></path>
        </g>
    </g>
</svg>