<?xml version="1.0" encoding="UTF-8"?>
<svg width="64px" height="65px" viewBox="0 0 64 65" version="1.1" xmlns="http://www.w3.org/2000/svg" xmlns:xlink="http://www.w3.org/1999/xlink">
    <!-- Generator: Sketch 51.2 (57519) - http://www.bohemiancoding.com/sketch -->
    <title>Netgiro_Logo_alt_130</title>
    <desc>Created with Sketch.</desc>
    <defs></defs>
    <g id="Page-1" stroke="none" stroke-width="1" fill="none" fill-rule="evenodd">
        <g id="Netgiro_Logo_alt_130">
            <path d="M0.0390276129,20.8849577 L0.0390276129,41.7609437 C11.7970441,41.7609437 21.3287984,32.4144472 21.3287984,20.8849577 L21.3287984,0.00897183066 C9.57078188,0.00897183066 0.0390276129,9.35546831 0.0390276129,20.8849577" id="Fill-1" fill="#00AEEF"></path>
            <path d="M42.6398562,20.8849577 L42.6398562,41.7609437 C54.3978727,41.7609437 63.929627,32.4144472 63.929627,20.8849577 L63.929627,0.00897183066 C52.1716104,0.00897183066 42.6398562,9.35546831 42.6398562,20.8849577" id="Fill-3" fill="#FFE300"></path>
            <path d="M42.6186392,20.8849577 C42.6186392,9.35546831 33.086885,0.00897183066 21.3288684,0.00897183066 L21.3288684,20.8849577 C21.3288684,32.4144472 30.8606227,41.7609437 42.6186392,41.7609437 L42.6186392,20.8849577 Z" id="Fill-5" fill="#64C3A2"></path>
            <path d="M0.00940791469,60.8104982 L0.00940791469,52.9029278 L2.0879218,52.9029278 L2.0879218,53.5387377 C2.70318992,53.0496356 3.46784029,52.7399701 4.36600104,52.7399701 C5.4798324,52.7399701 6.4942312,53.2288433 7.1592156,54.0115898 C7.69138985,54.6311496 7.99062116,55.4301461 7.99062116,56.7832447 L7.99062116,60.8104982 L5.82924681,60.8104982 L5.82924681,56.6200581 C5.82924681,55.8375405 5.64625356,55.4301461 5.34678884,55.1365018 C5.06412962,54.8593363 4.63185475,54.6963785 4.1330581,54.6963785 C3.21855867,54.6963785 2.47024699,55.2669595 2.17101568,55.6748116 L2.17101568,60.8104982 L0.00940791469,60.8104982 Z" id="Fill-7" fill="#FFFFFF"></path>
            <path d="M16.4213583,55.837632 C16.3548365,55.1365933 15.7064242,54.4515757 14.8250689,54.4515757 C13.927375,54.4515757 13.1956354,55.1201144 13.095736,55.837632 L16.4213583,55.837632 Z M18.4333504,59.5549912 C17.6518945,60.4679665 16.3714086,60.9733187 15.1245336,60.9733187 C12.7134108,60.9733187 10.9009841,59.3430546 10.9009841,56.8648151 C10.9009841,54.6637412 12.4307516,52.7398327 14.8250689,52.7398327 C17.0531985,52.7398327 18.6329157,54.5822623 18.6329157,56.7833363 C18.6329157,56.9955018 18.6161102,57.2069806 18.582966,57.3866461 L12.9963035,57.3866461 C13.1125415,58.4950792 14.027041,59.2615757 15.1742499,59.2615757 C16.0887494,59.2615757 16.8202555,58.7559947 17.2028141,58.3486004 L18.4333504,59.5549912 Z" id="Fill-9" fill="#FFFFFF"></path>
            <path d="M27.6123758,60.8104982 C27.3297166,60.908456 26.6813043,60.973456 26.2653681,60.973456 C24.9685435,60.973456 24.0208999,60.5495827 23.4721535,59.832294 C23.0562173,59.294213 22.8734575,58.5931743 22.8734575,57.4680335 L22.8734575,54.6963785 L20.6289893,54.6963785 L20.6289893,52.9029278 L22.8734575,52.9029278 L22.8734575,50.7018539 L25.0350653,50.7018539 L25.0350653,52.9029278 L27.6954697,52.9029278 L27.6954697,54.6963785 L25.0350653,54.6963785 L25.0350653,57.7124701 C25.0350653,58.2018011 25.1183925,58.4952165 25.3011524,58.7071532 C25.5172898,58.9518187 25.8664708,59.0985264 26.3984117,59.0985264 C26.7144485,59.0985264 27.1301512,59.0497764 27.2797669,59.0168187 L27.6123758,60.8104982 Z" id="Fill-11" fill="#FFFFFF"></path>
            <path d="M36.3425543,55.6746972 C35.8937073,55.0878662 35.1783064,54.696493 34.3471343,54.696493 C33.0834538,54.696493 32.2686204,55.7234472 32.2686204,56.864838 C32.2686204,58.1037289 33.1833532,59.0169331 34.3970839,59.0169331 C35.211684,59.0169331 35.9266181,58.6255599 36.3425543,58.0387289 L36.3425543,55.6746972 Z M38.504162,60.3702606 C38.504162,61.7888169 38.254647,62.6365634 37.7724224,63.3051021 C37.0406829,64.2997852 35.7438582,64.8863873 34.1972852,64.8863873 C32.6180348,64.8863873 31.1214114,64.1690986 30.32315,63.2561232 L31.6869633,61.8700669 C32.1192381,62.326669 32.867083,63.0114577 34.1972852,63.0114577 C34.8958806,63.0114577 35.4777711,62.7995211 35.8437576,62.3756479 C36.1761331,62.0167746 36.3425543,61.5276725 36.3425543,60.5169683 L36.3425543,60.2562817 C35.6939086,60.7451549 34.9955466,60.9733415 34.1809465,60.9733415 C32.9835545,60.9733415 31.8363455,60.4517394 31.1214114,59.6367218 C30.4895712,58.9192042 30.1070126,57.9407711 30.1070126,56.864838 C30.1070126,54.5333063 31.8697231,52.7398556 34.0642416,52.7398556 C34.9789745,52.7398556 35.7935745,53.0332711 36.4256481,53.5386232 L36.4256481,52.9028134 L38.504162,52.9028134 L38.504162,60.3702606 Z" id="Fill-13" fill="#FFFFFF"></path>
            <path d="M45.9038115,49.0713609 L43.9083915,51.6800581 L42.4120016,51.6800581 L43.5757826,49.0713609 L45.9038115,49.0713609 Z M42.2455804,60.8104982 L44.4071882,60.8104982 L44.4071882,52.9029278 L42.2455804,52.9029278 L42.2455804,60.8104982 Z" id="Fill-15" fill="#FFFFFF"></path>
            <path d="M53.0541561,54.7779718 C52.904307,54.7287641 52.5885036,54.696493 52.2724668,54.696493 C51.3250566,54.696493 50.5767449,55.3645739 50.3106578,55.8376549 L50.3106578,60.8103838 L48.14905,60.8103838 L48.14905,52.9028134 L50.2275639,52.9028134 L50.2275639,53.7018099 C50.7097885,53.11475 51.5909103,52.7398556 52.5719315,52.7398556 C52.8879683,52.7398556 53.0707282,52.7723556 53.3034377,52.8050845 L53.0541561,54.7779718 Z" id="Fill-17" fill="#FFFFFF"></path>
            <path d="M62.332544,49.0713609 L60.3373574,51.6800581 L58.8407341,51.6800581 L60.0045151,49.0713609 L62.332544,49.0713609 Z M59.5890457,59.0168187 C60.8524928,59.0168187 61.7172759,58.0550933 61.7172759,56.8649525 C61.7172759,55.6748116 60.8524928,54.6963785 59.5890457,54.6963785 C58.3251319,54.6963785 57.4605822,55.6748116 57.4605822,56.8649525 C57.4605822,58.0550933 58.3251319,59.0168187 59.5890457,59.0168187 Z M59.5890457,52.7399701 C62.0330793,52.7399701 63.8788837,54.5821708 63.8788837,56.8649525 C63.8788837,59.1472764 62.0330793,60.973456 59.5890457,60.973456 C57.1447788,60.973456 55.2989744,59.1472764 55.2989744,56.8649525 C55.2989744,54.5821708 57.1447788,52.7399701 59.5890457,52.7399701 Z" id="Fill-19" fill="#FFFFFF"></path>
        </g>
    </g>
</svg>