<svg xmlns="http://www.w3.org/2000/svg" width="94" height="24" viewBox="0 0 94 24">
    <g fill="none" fill-rule="evenodd">
        <path fill="#231F20" d="M42.933 15.175V8.584h1.657v.53c.49-.408 1.1-.666 1.815-.666.888 0 1.697.408 2.227 1.06.424.516.662 1.182.662 2.31v3.357h-1.722v-3.493c0-.652-.146-.992-.385-1.236-.225-.231-.57-.367-.967-.367-.729 0-1.326.476-1.564.815v4.28h-1.723zM56.015 11.03c-.053-.584-.57-1.155-1.273-1.155-.715 0-1.299.557-1.378 1.155h2.65zm1.603 3.098c-.623.761-1.643 1.183-2.637 1.183-1.922 0-3.367-1.36-3.367-3.425 0-1.834 1.22-3.438 3.128-3.438 1.776 0 3.035 1.536 3.035 3.37 0 .177-.013.354-.04.503h-4.453c.093.924.822 1.563 1.736 1.563.73 0 1.313-.422 1.617-.761l.981 1.005zM64.935 15.175c-.226.081-.742.136-1.074.136-1.034 0-1.789-.354-2.227-.952-.33-.448-.477-1.032-.477-1.97v-2.31h-1.789V8.584h1.79V6.75h1.722v1.834h2.121v1.495h-2.12v2.514c0 .407.066.652.211.829.173.204.451.326.875.326.252 0 .583-.04.703-.068l.265 1.495zM71.893 10.894a1.961 1.961 0 0 0-1.59-.815c-1.007 0-1.657.856-1.657 1.807 0 1.033.73 1.794 1.696 1.794.65 0 1.22-.326 1.551-.815v-1.97zm1.723 3.914c0 1.182-.199 1.889-.583 2.446-.583.829-1.617 1.318-2.85 1.318-1.258 0-2.451-.598-3.087-1.359l1.086-1.155c.345.38.941.951 2.001.951.557 0 1.02-.176 1.313-.53.265-.299.397-.706.397-1.549v-.217a2.668 2.668 0 0 1-1.723.598c-.954 0-1.868-.435-2.438-1.115-.504-.598-.809-1.413-.809-2.31 0-1.943 1.405-3.438 3.155-3.438a2.9 2.9 0 0 1 1.882.666v-.53h1.656v6.224zM79.514 5.39l-1.59 2.175H76.73l.928-2.174h1.855zM76.6 15.176h1.722V8.584H76.6v6.59zM85.214 10.147c-.12-.041-.371-.068-.623-.068-.756 0-1.352.557-1.564.951v4.145h-1.723V8.584h1.657v.666c.384-.49 1.087-.802 1.868-.802.252 0 .398.027.583.054l-.198 1.645zM92.61 5.39l-1.591 2.175h-1.193l.928-2.174h1.855zm-2.187 8.29c1.007 0 1.696-.802 1.696-1.794s-.69-1.807-1.696-1.807c-1.008 0-1.697.815-1.697 1.807s.69 1.794 1.697 1.794zm0-5.232c1.948 0 3.419 1.536 3.419 3.438 0 1.902-1.471 3.425-3.42 3.425-1.948 0-3.419-1.523-3.419-3.425s1.471-3.438 3.42-3.438z"/>
        <path fill="#00AEEF" d="M0 11.927v11.927c6.425 0 11.633-5.34 11.633-11.927V0C5.208 0 0 5.34 0 11.927"/>
        <path fill="#FFE300" d="M23.277 11.927v11.927c6.424 0 11.632-5.34 11.632-11.927V0c-6.424 0-11.632 5.34-11.632 11.927"/>
        <path fill="#64C3A2" d="M23.265 11.927C23.265 5.34 18.057 0 11.632 0v11.927c0 6.587 5.209 11.927 11.633 11.927V11.927z"/>
    </g>
</svg>
