<?xml version="1.0" encoding="UTF-8"?>
<svg width="240px" height="60px" viewBox="0 0 240 60" version="1.1" xmlns="http://www.w3.org/2000/svg" xmlns:xlink="http://www.w3.org/1999/xlink">
    <!-- Generator: Sketch 51.2 (57519) - http://www.bohemiancoding.com/sketch -->
    <title>Netgiro_Logo_150</title>
    <desc>Created with Sketch.</desc>
    <defs></defs>
    <g id="Page-1" stroke="none" stroke-width="1" fill="none" fill-rule="evenodd">
        <g id="Netgiro_Logo_150">
            <path d="M109.615921,37.9368095 L109.615921,21.4596667 L113.845802,21.4596667 L113.845802,22.7849048 C115.097976,21.7658571 116.654182,21.120619 118.481692,21.120619 C120.748885,21.120619 122.813075,22.1391905 124.166751,23.7701429 C125.249123,25.0610952 125.858134,26.7258571 125.858134,29.545381 L125.858134,37.9368095 L121.459399,37.9368095 L121.459399,29.2058571 C121.459399,27.5749048 121.087542,26.7258571 120.478055,26.1144286 C119.902719,25.5363333 119.022877,25.1972857 118.007858,25.1972857 C116.147146,25.1972857 114.624142,26.3863333 114.01513,27.235381 L114.01513,37.9368095 L109.615921,37.9368095 Z" id="Fill-1" fill="#231F20"></path>
            <path d="M143.015763,27.5750476 C142.880585,26.1145714 141.561059,24.6874286 139.767225,24.6874286 C137.94019,24.6874286 136.451336,26.0802857 136.247858,27.5750476 L143.015763,27.5750476 Z M147.110466,35.3207619 C145.520111,37.2231429 142.914261,38.2764762 140.376711,38.2764762 C135.469992,38.2764762 131.781296,34.8793333 131.781296,29.7155238 C131.781296,25.1288571 134.894656,21.1202857 139.767225,21.1202857 C144.301613,21.1202857 147.516474,24.9588571 147.516474,29.5455238 C147.516474,29.9874286 147.482324,30.4288571 147.414972,30.8026667 L136.045328,30.8026667 C136.282008,33.1121905 138.143194,34.7093333 140.477739,34.7093333 C142.338925,34.7093333 143.827779,33.656 144.606119,32.8069524 L147.110466,35.3207619 Z" id="Fill-3" fill="#231F20"></path>
            <path d="M165.790672,37.9368095 C165.215336,38.140619 163.89581,38.2763333 163.049644,38.2763333 C160.410593,38.2763333 158.481581,37.393 157.364585,35.8982381 C156.518893,34.7772857 156.146561,33.3163333 156.146561,30.9725238 L156.146561,25.1972857 L151.578498,25.1972857 L151.578498,21.4596667 L156.146561,21.4596667 L156.146561,16.8739524 L160.545771,16.8739524 L160.545771,21.4596667 L165.96,21.4596667 L165.96,25.1972857 L160.545771,25.1972857 L160.545771,31.4815714 C160.545771,32.5010952 160.715099,33.1125238 161.086957,33.5539524 C161.527115,34.0639524 162.237628,34.3696667 163.320474,34.3696667 C163.963636,34.3696667 164.809328,34.2677619 165.113834,34.1996667 L165.790672,37.9368095 Z" id="Fill-5" fill="#231F20"></path>
            <path d="M183.557312,27.2355714 C182.643794,26.0127143 181.188142,25.197 179.496285,25.197 C176.925059,25.197 175.266877,27.3374762 175.266877,29.7155714 C175.266877,32.297 177.128063,34.199381 179.597787,34.199381 C181.255968,34.199381 182.711146,33.3841429 183.557312,32.1617619 L183.557312,27.2355714 Z M187.956522,37.019381 C187.956522,39.9750952 187.448538,41.7417619 186.467194,43.134619 C184.977866,45.207 182.338814,46.4298571 179.191779,46.4298571 C175.977866,46.4298571 172.931858,44.9350952 171.307826,43.0327143 L174.08253,40.1450952 C174.962846,41.0960476 176.484901,42.5231905 179.191779,42.5231905 C180.613281,42.5231905 181.797154,42.0812857 182.542292,41.1979524 C183.218656,40.4503333 183.557312,39.4312857 183.557312,37.3255714 L183.557312,36.7817619 C182.237312,37.8008095 180.816285,38.2765238 179.158577,38.2765238 C176.722055,38.2765238 174.387036,37.1889048 172.931858,35.4908095 C171.646482,33.9960476 170.867668,31.9574762 170.867668,29.7155714 C170.867668,24.857 174.454862,21.1203333 178.921423,21.1203333 C180.782134,21.1203333 182.440316,21.7317619 183.72664,22.784619 L183.72664,21.4598571 L187.956522,21.4598571 L187.956522,37.019381 Z" id="Fill-7" fill="#231F20"></path>
            <path d="M203.015526,13.4764762 L198.954498,18.9121905 L195.909439,18.9121905 L198.27766,13.4764762 L203.015526,13.4764762 Z M195.570783,37.9369524 L199.969518,37.9369524 L199.969518,21.4598095 L195.570783,21.4598095 L195.570783,37.9369524 Z" id="Fill-9" fill="#231F20"></path>
            <path d="M217.567162,25.3670952 C217.262182,25.2647143 216.619494,25.1970952 215.976332,25.1970952 C214.047794,25.1970952 212.525265,26.5894762 211.984079,27.5751905 L211.984079,37.936619 L207.584395,37.936619 L207.584395,21.4599524 L211.814277,21.4599524 L211.814277,23.1247143 C212.795621,21.9018571 214.589455,21.1204286 216.585818,21.1204286 C217.228506,21.1204286 217.600838,21.1880476 218.074198,21.2561429 L217.567162,25.3670952 Z" id="Fill-11" fill="#231F20"></path>
            <path d="M236.449613,13.4764762 L232.388585,18.9121905 L229.343526,18.9121905 L231.711747,13.4764762 L236.449613,13.4764762 Z M230.86653,34.1998095 C233.437281,34.1998095 235.197439,32.1955238 235.197439,29.7155238 C235.197439,27.2355238 233.437281,25.1969524 230.86653,25.1969524 C228.294356,25.1969524 226.535146,27.2355238 226.535146,29.7155238 C226.535146,32.1955238 228.294356,34.1998095 230.86653,34.1998095 Z M230.86653,21.1202857 C235.840126,21.1202857 239.596648,24.9588571 239.596648,29.7155238 C239.596648,34.4712381 235.840126,38.2764762 230.86653,38.2764762 C225.891984,38.2764762 222.135462,34.4712381 222.135462,29.7155238 C222.135462,24.9588571 225.891984,21.1202857 230.86653,21.1202857 Z" id="Fill-13" fill="#231F20"></path>
            <path d="M0.276284585,29.9087619 L0.276284585,59.726381 C16.6792885,59.726381 29.9765217,46.3768571 29.9765217,29.9087619 L29.9765217,0.0906666667 C13.5735178,0.0906666667 0.276284585,13.4406667 0.276284585,29.9087619" id="Fill-15" fill="#00AEEF"></path>
            <path d="M59.7058814,29.9087619 L59.7058814,59.726381 C76.1088854,59.726381 89.4061186,46.3768571 89.4061186,29.9087619 L89.4061186,0.0906666667 C73.0031146,0.0906666667 59.7058814,13.4406667 59.7058814,29.9087619" id="Fill-17" fill="#FFE300"></path>
            <path d="M59.6764743,29.9087619 C59.6764743,13.4406667 46.3792411,0.0906666667 29.9762372,0.0906666667 L29.9762372,29.9087619 C29.9762372,46.3768571 43.2734704,59.726381 59.6764743,59.726381 L59.6764743,29.9087619 Z" id="Fill-19" fill="#64C3A2"></path>
        </g>
    </g>
</svg>