<?xml version="1.0" encoding="UTF-8"?>
<svg width="48px" height="48px" viewBox="0 0 48 48" version="1.1" xmlns="http://www.w3.org/2000/svg" xmlns:xlink="http://www.w3.org/1999/xlink">
    <!-- Generator: Sketch 51.3 (57544) - http://www.bohemiancoding.com/sketch -->
    <title>Netgiro_Logo_alt_48</title>
    <desc>Created with Sketch.</desc>
    <defs></defs>
    <g id="Page-1" stroke="none" stroke-width="1" fill="none" fill-rule="evenodd">
        <g id="Netgiro_Logo_alt_48">
            <path d="M0.0292707097,15.7508814 L0.0292707097,31.4949965 C8.84778311,31.4949965 15.9965988,24.4461166 15.9965988,15.7508814 L15.9965988,0.0067663169 C7.17808641,0.0067663169 0.0292707097,7.05564615 0.0292707097,15.7508814" id="Fill-1" fill="#00AEEF"></path>
            <path d="M31.9798921,15.7508814 L31.9798921,31.4949965 C40.7984045,31.4949965 47.9472202,24.4461166 47.9472202,15.7508814 L47.9472202,0.0067663169 C39.1287078,0.0067663169 31.9798921,7.05564615 31.9798921,15.7508814" id="Fill-3" fill="#FFE300"></path>
            <path d="M31.9639794,15.7508814 C31.9639794,7.05564615 24.8151637,0.0067663169 15.9966513,0.0067663169 L15.9966513,15.7508814 C15.9966513,24.4461166 23.145467,31.4949965 31.9639794,31.4949965 L31.9639794,15.7508814 Z" id="Fill-5" fill="#64C3A2"></path>
            <path d="M0.00705593602,44.8403889 L0.00705593602,38.8767089 L1.56594135,38.8767089 L1.56594135,39.3562198 C2.02739244,38.987352 2.60088022,38.7538105 3.27450078,38.7538105 C4.1098743,38.7538105 4.8706734,39.1225057 5.3694117,39.7128324 C5.76854239,40.180088 5.99296587,40.7826699 5.99296587,41.803141 L5.99296587,44.8403889 L4.3719351,44.8403889 L4.3719351,41.68007 C4.3719351,41.089916 4.23469017,40.7826699 4.01009163,40.5612111 C3.79809722,40.3521803 3.47389106,40.2292819 3.09979357,40.2292819 C2.413919,40.2292819 1.85268524,40.6595989 1.62826176,40.9671902 L1.62826176,44.8403889 L0.00705593602,44.8403889 Z" id="Fill-7" fill="#231F20"></path>
            <path d="M12.3160187,41.089985 C12.2661274,40.5612802 11.7798181,40.0446581 11.1188017,40.0446581 C10.4455312,40.0446581 9.89672656,40.5488523 9.82180202,41.089985 L12.3160187,41.089985 Z M13.8250128,43.8935187 C13.2389209,44.5820605 12.2785564,44.9631837 11.3434002,44.9631837 C9.53505814,44.9631837 8.17573806,43.7336818 8.17573806,41.8646593 C8.17573806,40.2046677 9.32306372,38.7537069 11.1188017,38.7537069 C12.7898989,38.7537069 13.9746868,40.1432185 13.9746868,41.8032101 C13.9746868,41.9632197 13.9620827,42.1227114 13.9372245,42.2582104 L9.74722761,42.2582104 C9.83440615,43.0941612 10.5202807,43.6722325 11.3806874,43.6722325 C12.066562,43.6722325 12.6151916,43.2909368 12.9021106,42.9836907 L13.8250128,43.8935187 Z" id="Fill-9" fill="#231F20"></path>
            <path d="M20.7092819,44.8403889 C20.4972874,44.914266 20.0109782,44.9632873 19.6990261,44.9632873 C18.7264076,44.9632873 18.0156749,44.6436133 17.6041151,44.1026532 C17.292163,43.6968467 17.1550931,43.1681419 17.1550931,42.3195905 L17.1550931,40.2292819 L15.471742,40.2292819 L15.471742,38.8767089 L17.1550931,38.8767089 L17.1550931,37.2167173 L18.7762989,37.2167173 L18.7762989,38.8767089 L20.7716023,38.8767089 L20.7716023,40.2292819 L18.7762989,40.2292819 L18.7762989,42.5039381 C18.7762989,42.8729786 18.8387944,43.0942648 18.9758643,43.2541018 C19.1379674,43.438622 19.3998531,43.5492651 19.7988087,43.5492651 C20.0358363,43.5492651 20.3476134,43.5124991 20.4598252,43.4876433 L20.7092819,44.8403889 Z" id="Fill-11" fill="#231F20"></path>
            <path d="M27.2569157,40.9671039 C26.9202805,40.5245315 26.3837298,40.2293682 25.7603507,40.2293682 C24.8125904,40.2293682 24.2014653,41.0038698 24.2014653,41.8646765 C24.2014653,42.7990152 24.8875149,43.4877296 25.797813,43.4877296 C26.408763,43.4877296 26.9449636,43.1925663 27.2569157,42.7499939 L27.2569157,40.9671039 Z M28.8781215,44.5083733 C28.8781215,45.5782108 28.6909853,46.2175588 28.3293168,46.721753 C27.7805121,47.4719166 26.8078937,47.9143163 25.6479639,47.9143163 C24.4635261,47.9143163 23.3410586,47.3733562 22.7423625,46.6848144 L23.7652224,45.6394874 C24.0894286,45.9838447 24.6503122,46.5002942 25.6479639,46.5002942 C26.1719104,46.5002942 26.6083283,46.3404572 26.8828182,46.0207832 C27.1320998,45.7501305 27.2569157,45.3812627 27.2569157,44.6190164 L27.2569157,44.4224134 C26.7704314,44.7911087 26.2466599,44.963201 25.6357099,44.963201 C24.7376658,44.963201 23.8772591,44.5698225 23.3410586,43.9551578 C22.8671784,43.4140251 22.5802595,42.6761168 22.5802595,41.8646765 C22.5802595,40.1062972 23.9022923,38.7537242 25.5481812,38.7537242 C26.2342309,38.7537242 26.8451809,38.9750104 27.3192361,39.3561335 L27.3192361,38.8766226 L28.8781215,38.8766226 L28.8781215,44.5083733 Z" id="Fill-13" fill="#231F20"></path>
            <path d="M34.4278586,35.9870427 L32.9312936,37.954453 L31.8090012,37.954453 L32.681837,35.9870427 L34.4278586,35.9870427 Z M31.6841853,44.8403889 L33.3053911,44.8403889 L33.3053911,38.8767089 L31.6841853,38.8767089 L31.6841853,44.8403889 Z" id="Fill-15" fill="#231F20"></path>
            <path d="M39.790617,40.2908174 C39.6782302,40.2537062 39.4413777,40.2293682 39.2043501,40.2293682 C38.4937924,40.2293682 37.9325587,40.7332171 37.7329933,41.0900023 L37.7329933,44.8403025 L36.1117875,44.8403025 L36.1117875,38.8766226 L37.6706729,38.8766226 L37.6706729,39.4792046 C38.0323413,39.0364596 38.6931827,38.7537242 39.4289486,38.7537242 C39.6659762,38.7537242 39.8030461,38.7782348 39.9775783,38.8029181 L39.790617,40.2908174 Z" id="Fill-17" fill="#231F20"></path>
            <path d="M46.749408,35.9870427 L45.2530181,37.954453 L44.1305505,37.954453 L45.0033863,35.9870427 L46.749408,35.9870427 Z M44.6917843,43.4876433 C45.6393696,43.4876433 46.2879569,42.7623355 46.2879569,41.8647628 C46.2879569,40.9671902 45.6393696,40.2292819 44.6917843,40.2292819 C43.7438489,40.2292819 43.0954366,40.9671902 43.0954366,41.8647628 C43.0954366,42.7623355 43.7438489,43.4876433 44.6917843,43.4876433 Z M44.6917843,38.7538105 C46.5248095,38.7538105 47.9091628,40.1431494 47.9091628,41.8647628 C47.9091628,43.586031 46.5248095,44.9632873 44.6917843,44.9632873 C42.8585841,44.9632873 41.4742308,43.586031 41.4742308,41.8647628 C41.4742308,40.1431494 42.8585841,38.7538105 44.6917843,38.7538105 Z" id="Fill-19" fill="#231F20"></path>
        </g>
    </g>
</svg>