<?xml version="1.0" encoding="UTF-8"?>
<svg width="32px" height="32px" viewBox="0 0 32 32" version="1.1" xmlns="http://www.w3.org/2000/svg" xmlns:xlink="http://www.w3.org/1999/xlink">
    <!-- Generator: Sketch 51.3 (57544) - http://www.bohemiancoding.com/sketch -->
    <title>Netgiro_Logo_alt_32</title>
    <desc>Created with Sketch.</desc>
    <defs></defs>
    <g id="Page-1" stroke="none" stroke-width="1" fill="none" fill-rule="evenodd">
        <g id="Netgiro_Logo_alt_32">
            <path d="M0.0195138065,10.2818254 L0.0195138065,20.5592338 C5.89852207,20.5592338 10.6643992,15.9578817 10.6643992,10.2818254 L10.6643992,0.00441690141 C4.78539094,0.00441690141 0.0195138065,4.60576901 0.0195138065,10.2818254" id="Fill-1" fill="#00AEEF"></path>
            <path d="M21.3199281,10.2818254 L21.3199281,20.5592338 C27.1989363,20.5592338 31.9648135,15.9578817 31.9648135,10.2818254 L31.9648135,0.00441690141 C26.0858052,0.00441690141 21.3199281,4.60576901 21.3199281,10.2818254" id="Fill-3" fill="#FFE300"></path>
            <path d="M21.3093196,10.2818254 C21.3093196,4.60576901 16.5434425,0.00441690141 10.6644342,0.00441690141 L10.6644342,10.2818254 C10.6644342,15.9578817 15.4303113,20.5592338 21.3093196,20.5592338 L21.3093196,10.2818254 Z" id="Fill-5" fill="#64C3A2"></path>
            <path d="M0.00470395734,29.9374761 L0.00470395734,26.0445183 L1.0439609,26.0445183 L1.0439609,26.3575324 C1.35159496,26.1167437 1.73392015,25.964293 2.18300052,25.964293 C2.7399162,25.964293 3.2471156,26.204969 3.5796078,26.5903211 C3.84569493,26.8953352 3.99531058,27.2886873 3.99531058,27.9548282 L3.99531058,29.9374761 L2.9146234,29.9374761 L2.9146234,27.8744901 C2.9146234,27.4892507 2.82312678,27.2886873 2.67339442,27.1441239 C2.53206481,27.0076732 2.31592738,26.9274479 2.06652905,26.9274479 C1.60927933,26.9274479 1.23512349,27.2083493 1.08550784,27.409138 L1.08550784,29.9374761 L0.00470395734,29.9374761 Z" id="Fill-7" fill="#231F20"></path>
            <path d="M8.21067913,27.4892958 C8.17741824,27.144169 7.85321208,26.8069296 7.41253446,26.8069296 C6.9636875,26.8069296 6.5978177,27.1360563 6.54786802,27.4892958 L8.21067913,27.4892958 Z M9.21667518,29.3193803 C8.82594725,29.7688451 8.18570428,30.0176338 7.56226682,30.0176338 C6.35670542,30.0176338 5.45049204,29.2150423 5.45049204,27.9949859 C5.45049204,26.9113803 6.21537582,25.9642254 7.41253446,25.9642254 C8.52659923,25.9642254 9.31645785,26.8712676 9.31645785,27.9548732 C9.31645785,28.0593239 9.3080551,28.1634366 9.29148301,28.2518873 L6.49815174,28.2518873 C6.55627077,28.7975775 7.01352048,29.1749296 7.58712496,29.1749296 C8.04437468,29.1749296 8.41012777,28.9260282 8.60140706,28.7254648 L9.21667518,29.3193803 Z" id="Fill-9" fill="#231F20"></path>
            <path d="M13.8061879,29.9374761 C13.6648583,29.9857014 13.3406521,30.0177014 13.132684,30.0177014 C12.4842717,30.0177014 12.0104499,29.8090254 11.7360768,29.4558986 C11.5281087,29.1909972 11.4367287,28.8458704 11.4367287,28.2919549 L11.4367287,26.9274479 L10.3144946,26.9274479 L10.3144946,26.0445183 L11.4367287,26.0445183 L11.4367287,24.9609127 L12.5175326,24.9609127 L12.5175326,26.0445183 L13.8477348,26.0445183 L13.8477348,26.9274479 L12.5175326,26.9274479 L12.5175326,28.412293 C12.5175326,28.6531944 12.5591963,28.7976451 12.6505762,28.9019831 C12.7586449,29.0224338 12.9332354,29.0946592 13.1992058,29.0946592 C13.3572242,29.0946592 13.5650756,29.0706592 13.6398834,29.0544338 L13.8061879,29.9374761 Z" id="Fill-11" fill="#231F20"></path>
            <path d="M18.1712771,27.4090817 C17.9468537,27.1201803 17.5891532,26.9275042 17.1735671,26.9275042 C16.5417269,26.9275042 16.1343102,27.4330817 16.1343102,27.9949972 C16.1343102,28.6049127 16.5916766,29.0544901 17.198542,29.0544901 C17.605842,29.0544901 17.963309,28.8618141 18.1712771,28.5729127 L18.1712771,27.4090817 Z M19.252081,29.7207437 C19.252081,30.4191099 19.1273235,30.836462 18.8862112,31.1655887 C18.5203414,31.6552789 17.8719291,31.9440676 17.0986426,31.9440676 C16.3090174,31.9440676 15.5607057,31.5909408 15.161575,31.1414761 L15.8434816,30.4591099 C16.0596191,30.6838986 16.4335415,31.0210254 17.0986426,31.0210254 C17.4479403,31.0210254 17.7388856,30.9166873 17.9218788,30.7080113 C18.0880666,30.5313352 18.1712771,30.2905465 18.1712771,29.792969 L18.1712771,29.664631 C17.8469543,29.905307 17.4977733,30.0176451 17.0904733,30.0176451 C16.4917772,30.0176451 15.9181727,29.7608563 15.5607057,29.3596169 C15.2447856,29.0063775 15.0535063,28.5246873 15.0535063,27.9949972 C15.0535063,26.8471662 15.9348615,25.9642366 17.0321208,25.9642366 C17.4894872,25.9642366 17.8967873,26.1086873 18.2128241,26.3574761 L18.2128241,26.044462 L19.252081,26.044462 L19.252081,29.7207437 Z" id="Fill-13" fill="#231F20"></path>
            <path d="M22.9519058,24.1582085 L21.9541958,25.4424901 L21.2060008,25.4424901 L21.7878913,24.1582085 L22.9519058,24.1582085 Z M21.1227902,29.9374761 L22.2035941,29.9374761 L22.2035941,26.0445183 L21.1227902,26.0445183 L21.1227902,29.9374761 Z" id="Fill-15" fill="#231F20"></path>
            <path d="M26.527078,26.9676169 C26.4521535,26.9433915 26.2942518,26.9275042 26.1362334,26.9275042 C25.6625283,26.9275042 25.2883724,27.2564056 25.1553289,27.489307 L25.1553289,29.9374197 L24.074525,29.9374197 L24.074525,26.044462 L25.113782,26.044462 L25.113782,26.4378141 C25.3548942,26.1488 25.7954551,25.9642366 26.2859658,25.9642366 C26.4439842,25.9642366 26.5353641,25.9802366 26.6517188,25.9963493 L26.527078,26.9676169 Z" id="Fill-17" fill="#231F20"></path>
            <path d="M31.166272,24.1582085 L30.1686787,25.4424901 L29.420367,25.4424901 L30.0022576,24.1582085 L31.166272,24.1582085 Z M29.7945229,29.0544338 C30.4262464,29.0544338 30.858638,28.580969 30.858638,27.9950535 C30.858638,27.409138 30.4262464,26.9274479 29.7945229,26.9274479 C29.162566,26.9274479 28.7302911,27.409138 28.7302911,27.9950535 C28.7302911,28.580969 29.162566,29.0544338 29.7945229,29.0544338 Z M29.7945229,25.964293 C31.0165397,25.964293 31.9394418,26.8712225 31.9394418,27.9950535 C31.9394418,29.1186592 31.0165397,30.0177014 29.7945229,30.0177014 C28.5723894,30.0177014 27.6494872,29.1186592 27.6494872,27.9950535 C27.6494872,26.8712225 28.5723894,25.964293 29.7945229,25.964293 Z" id="Fill-19" fill="#231F20"></path>
        </g>
    </g>
</svg>