<?xml version="1.0" encoding="UTF-8"?>
<svg width="49px" height="50px" viewBox="0 0 49 50" version="1.1" xmlns="http://www.w3.org/2000/svg" xmlns:xlink="http://www.w3.org/1999/xlink">
    <!-- Generator: Sketch 51.2 (57519) - http://www.bohemiancoding.com/sketch -->
    <title>Netgiro_Logo_alt_100</title>
    <desc>Created with Sketch.</desc>
    <defs></defs>
    <g id="Page-1" stroke="none" stroke-width="1" fill="none" fill-rule="evenodd">
        <g id="Netgiro_Logo_alt_100">
            <path d="M0.0298805161,16.0653521 L0.0298805161,32.1238028 C9.03211192,32.1238028 16.3298613,24.9341901 16.3298613,16.0653521 L16.3298613,0.00690140845 C7.32762987,0.00690140845 0.0298805161,7.19651408 0.0298805161,16.0653521" id="Fill-1" fill="#00AEEF"></path>
            <path d="M32.6461399,16.0653521 L32.6461399,32.1238028 C41.6483713,32.1238028 48.9461206,24.9341901 48.9461206,16.0653521 L48.9461206,0.00690140845 C39.9438892,0.00690140845 32.6461399,7.19651408 32.6461399,16.0653521" id="Fill-3" fill="#FFE300"></path>
            <path d="M32.6298957,16.0653521 C32.6298957,7.19651408 25.3321463,0.00690140845 16.3299149,0.00690140845 L16.3299149,16.0653521 C16.3299149,24.9341901 23.6276642,32.1238028 32.6298957,32.1238028 L32.6298957,16.0653521 Z" id="Fill-5" fill="#64C3A2"></path>
            <path d="M0.00720293468,46.7773063 L0.00720293468,40.6945599 L1.59856513,40.6945599 L1.59856513,41.1836444 C2.06962979,40.807412 2.65506522,40.5692077 3.34271954,40.5692077 C4.19549668,40.5692077 4.97214577,40.9452641 5.48127445,41.5473768 C5.88872035,42.0239613 6.11781932,42.6385739 6.11781932,43.679419 L6.11781932,46.7773063 L4.46301709,46.7773063 L4.46301709,43.5538908 C4.46301709,42.9519542 4.32291288,42.6385739 4.0936352,42.4126937 C3.87722424,42.1994894 3.54626379,42.0741373 3.16437261,42.0741373 C2.46420898,42.0741373 1.89128285,42.5130458 1.66218388,42.8267782 L1.66218388,46.7773063 L0.00720293468,46.7773063 Z" id="Fill-7" fill="#231F20"></path>
            <path d="M12.5726024,42.9520246 C12.5216717,42.4127641 12.025231,41.8858275 11.3504434,41.8858275 C10.6631465,41.8858275 10.1029084,42.400088 10.0264229,42.9520246 L12.5726024,42.9520246 Z M14.1130339,45.8115317 C13.5147317,46.5138204 12.5343597,46.9025528 11.5797211,46.9025528 C9.73370518,46.9025528 8.34606594,45.6485035 8.34606594,43.7421655 C8.34606594,42.0490317 9.51729422,40.5691021 11.3504434,40.5691021 C13.0563551,40.5691021 14.2658261,41.9863556 14.2658261,43.6794894 C14.2658261,43.8426937 14.2529594,44.0053697 14.2275834,44.1435739 L9.95029485,44.1435739 C10.0392896,44.9962148 10.7394532,45.5858275 11.6177851,45.5858275 C12.3179487,45.5858275 12.8780081,45.196919 13.1709046,44.8835387 L14.1130339,45.8115317 Z" id="Fill-9" fill="#231F20"></path>
            <path d="M21.1407252,46.7773063 C20.9243143,46.8526585 20.4278736,46.9026585 20.1094224,46.9026585 C19.1165411,46.9026585 18.3910015,46.5766021 17.9708675,46.0248415 C17.6524164,45.6109331 17.5124909,45.0716725 17.5124909,44.2061796 L17.5124909,42.0741373 L15.7940699,42.0741373 L15.7940699,40.6945599 L17.5124909,40.6945599 L17.5124909,39.0014261 L19.1674718,39.0014261 L19.1674718,40.6945599 L21.204344,40.6945599 L21.204344,42.0741373 L19.1674718,42.0741373 L19.1674718,44.3942077 C19.1674718,44.7706162 19.2312693,44.9963204 19.3711948,45.1593486 C19.536675,45.3475528 19.8040167,45.4604049 20.2112839,45.4604049 C20.4532496,45.4604049 20.771522,45.4229049 20.8860715,45.3975528 L21.1407252,46.7773063 Z" id="Fill-11" fill="#231F20"></path>
            <path d="M27.8247681,42.8266901 C27.4811197,42.3752817 26.9333908,42.0742254 26.2970247,42.0742254 C25.3295193,42.0742254 24.7056625,42.8641901 24.7056625,43.7421831 C24.7056625,44.6951761 25.4060048,45.3976408 26.3352674,45.3976408 C26.9589456,45.3976408 27.506317,45.0965845 27.8247681,44.6451761 L27.8247681,42.8266901 Z M29.4797491,46.438662 C29.4797491,47.5298592 29.2887141,48.1819718 28.9195109,48.6962324 C28.3592728,49.4613732 27.3663915,49.9126056 26.1822965,49.9126056 C24.9731829,49.9126056 23.8273306,49.3608451 23.2161618,48.6585563 L24.2603312,47.5923592 C24.5912917,47.9435915 25.1638604,48.4703521 26.1822965,48.4703521 C26.7171586,48.4703521 27.1626685,48.3073239 27.4428769,47.9812676 C27.6973519,47.7052113 27.8247681,47.3289789 27.8247681,46.5515141 L27.8247681,46.3509859 C27.3281487,46.7270423 26.7934653,46.9025704 26.1697872,46.9025704 C25.2530339,46.9025704 24.374702,46.501338 23.8273306,45.8744014 C23.3435779,45.3224648 23.0506815,44.5698239 23.0506815,43.7421831 C23.0506815,41.9486972 24.4002567,40.5691197 26.080435,40.5691197 C26.7807773,40.5691197 27.4044555,40.7948239 27.8883869,41.1835563 L27.8883869,40.6944718 L29.4797491,40.6944718 L29.4797491,46.438662 Z" id="Fill-13" fill="#231F20"></path>
            <path d="M35.1451057,37.7472007 L33.6173623,39.7538908 L32.4716887,39.7538908 L33.3627086,37.7472007 L35.1451057,37.7472007 Z M32.3442725,46.7773063 L33.9992534,46.7773063 L33.9992534,40.6945599 L32.3442725,40.6945599 L32.3442725,46.7773063 Z" id="Fill-15" fill="#231F20"></path>
            <path d="M40.6195882,42.1369014 C40.50486,42.0990493 40.2630731,42.0742254 40.0211074,42.0742254 C39.2957464,42.0742254 38.7228203,42.5881338 38.5190974,42.9520423 L38.5190974,46.7772183 L36.8641164,46.7772183 L36.8641164,40.6944718 L38.4554786,40.6944718 L38.4554786,41.3090845 C38.8246818,40.8575 39.4992907,40.5691197 40.2503851,40.5691197 C40.4923507,40.5691197 40.6322762,40.5941197 40.8104445,40.6192958 L40.6195882,42.1369014 Z" id="Fill-17" fill="#231F20"></path>
            <path d="M47.723354,37.7472007 L46.1957893,39.7538908 L45.049937,39.7538908 L45.9409569,37.7472007 L47.723354,37.7472007 Z M45.6228631,45.3975528 C46.5901898,45.3975528 47.2522894,44.6577641 47.2522894,43.7422711 C47.2522894,42.8267782 46.5901898,42.0741373 45.6228631,42.0741373 C44.6551791,42.0741373 43.9932582,42.8267782 43.9932582,43.7422711 C43.9932582,44.6577641 44.6551791,45.3975528 45.6228631,45.3975528 Z M45.6228631,40.5692077 C47.4940764,40.5692077 48.9072703,41.9862852 48.9072703,43.7422711 C48.9072703,45.4979049 47.4940764,46.9026585 45.6228631,46.9026585 C43.7514712,46.9026585 42.3382773,45.4979049 42.3382773,43.7422711 C42.3382773,41.9862852 43.7514712,40.5692077 45.6228631,40.5692077 Z" id="Fill-19" fill="#231F20"></path>
        </g>
    </g>
</svg>