<?xml version="1.0" encoding="UTF-8"?>
<svg width="304px" height="76px" viewBox="0 0 304 76" version="1.1" xmlns="http://www.w3.org/2000/svg" xmlns:xlink="http://www.w3.org/1999/xlink">
    <!-- Generator: Sketch 51.2 (57519) - http://www.bohemiancoding.com/sketch -->
    <title>Netgiro_Logo_200</title>
    <desc>Created with Sketch.</desc>
    <defs></defs>
    <g id="Page-1" stroke="none" stroke-width="1" fill="none" fill-rule="evenodd">
        <g id="Netgiro_Logo_200">
            <path d="M138.846833,48.0532921 L138.846833,27.1822444 L144.204683,27.1822444 L144.204683,28.8608794 C145.79077,27.5700857 147.761964,26.7527841 150.076809,26.7527841 C152.948588,26.7527841 155.563228,28.0429746 157.277885,30.1088476 C158.648889,31.744054 159.420304,33.8527524 159.420304,37.4241492 L159.420304,48.0532921 L153.848572,48.0532921 L153.848572,36.9940857 C153.848572,34.9282127 153.377553,33.8527524 152.605537,33.0782762 C151.876778,32.3460222 150.762311,31.9165619 149.47662,31.9165619 C147.119719,31.9165619 145.19058,33.4226889 144.419165,34.4981492 L144.419165,48.0532921 L138.846833,48.0532921 Z" id="Fill-1" fill="#FFFFFF"></path>
            <path d="M181.1533,34.9283937 C180.982074,33.0784571 179.310675,31.2707429 177.038485,31.2707429 C174.72424,31.2707429 172.838359,33.0350286 172.58062,34.9283937 L181.1533,34.9283937 Z M186.339924,44.7396317 C184.325474,47.1493143 181.02473,48.4835365 177.810501,48.4835365 C171.595323,48.4835365 166.922975,44.1804889 166.922975,37.6396635 C166.922975,31.8298857 170.866564,26.7523619 177.038485,26.7523619 C182.782043,26.7523619 186.854201,31.6145524 186.854201,37.4243302 C186.854201,37.9840762 186.810944,38.543219 186.725632,39.0167111 L172.324082,39.0167111 C172.623877,41.9421079 174.981379,43.9651556 177.93847,43.9651556 C180.295972,43.9651556 182.181853,42.6309333 183.16775,41.555473 L186.339924,44.7396317 Z" id="Fill-3" fill="#FFFFFF"></path>
            <path d="M210.001518,48.0532921 C209.272759,48.3114508 207.60136,48.4833556 206.529549,48.4833556 C203.186751,48.4833556 200.743336,47.3644667 199.328474,45.4711016 C198.257265,44.0512286 197.785644,42.2006889 197.785644,39.2318635 L197.785644,31.9165619 L191.999431,31.9165619 L191.999431,27.1822444 L197.785644,27.1822444 L197.785644,21.373673 L203.357976,21.373673 L203.357976,27.1822444 L210.216,27.1822444 L210.216,31.9165619 L203.357976,31.9165619 L203.357976,39.8766571 C203.357976,41.168054 203.572458,41.9425302 204.043478,42.501673 C204.601012,43.147673 205.500996,43.5349111 206.872601,43.5349111 C207.687273,43.5349111 208.758482,43.4058317 209.14419,43.3195778 L210.001518,48.0532921 Z" id="Fill-5" fill="#FFFFFF"></path>
            <path d="M232.505929,34.4983905 C231.348806,32.9494381 229.50498,31.9162 227.36196,31.9162 C224.105075,31.9162 222.004711,34.6274698 222.004711,37.6397238 C222.004711,40.9095333 224.362213,43.3192159 227.49053,43.3192159 C229.590893,43.3192159 231.434119,42.286581 232.505929,40.7382317 L232.505929,34.4983905 Z M238.078261,46.8912159 C238.078261,50.6351206 237.434814,52.8728984 236.191779,54.6371841 C234.305296,57.2622 230.962498,58.8111524 226.976253,58.8111524 C222.905296,58.8111524 219.04702,56.9177873 216.989913,54.5081048 L220.504538,50.850454 C221.619605,52.0549937 223.547542,53.8627079 226.976253,53.8627079 C228.776822,53.8627079 230.276395,53.3029619 231.220237,52.184073 C232.076964,51.2370889 232.505929,49.9462952 232.505929,47.2790571 L232.505929,46.5902317 C230.833929,47.8810254 229.03396,48.4835968 226.934198,48.4835968 C223.847937,48.4835968 220.890245,47.105946 219.04702,44.9550254 C217.418877,43.0616603 216.432379,40.4794698 216.432379,37.6397238 C216.432379,31.4855333 220.976158,26.7524222 226.633802,26.7524222 C228.990704,26.7524222 231.091067,27.5268984 232.720411,28.8605175 L232.720411,27.1824857 L238.078261,27.1824857 L238.078261,46.8912159 Z" id="Fill-7" fill="#FFFFFF"></path>
            <path d="M257.152999,17.0702032 L252.009031,23.9554413 L248.151956,23.9554413 L251.151703,17.0702032 L257.152999,17.0702032 Z M247.722991,48.053473 L253.294723,48.053473 L253.294723,27.1824254 L247.722991,27.1824254 L247.722991,48.053473 Z" id="Fill-9" fill="#FFFFFF"></path>
            <path d="M275.585072,32.131654 C275.198764,32.0019714 274.384692,31.9163206 273.570021,31.9163206 C271.127206,31.9163206 269.198669,33.6800032 268.513167,34.9285746 L268.513167,48.0530508 L262.940234,48.0530508 L262.940234,27.1826063 L268.298084,27.1826063 L268.298084,29.2913048 C269.541119,27.7423524 271.813309,26.7525429 274.342036,26.7525429 C275.156108,26.7525429 275.627728,26.8381937 276.227317,26.9244476 L275.585072,32.131654 Z" id="Fill-11" fill="#FFFFFF"></path>
            <path d="M299.502843,17.0702032 L294.358874,23.9554413 L290.501799,23.9554413 L293.501546,17.0702032 L299.502843,17.0702032 Z M292.430938,43.3197587 C295.687222,43.3197587 297.916756,40.7809968 297.916756,37.6396635 C297.916756,34.4983302 295.687222,31.9161397 292.430938,31.9161397 C289.172851,31.9161397 286.944519,34.4983302 286.944519,37.6396635 C286.944519,40.7809968 289.172851,43.3197587 292.430938,43.3197587 Z M292.430938,26.7523619 C298.730827,26.7523619 303.489088,31.6145524 303.489088,37.6396635 C303.489088,43.6635683 298.730827,48.4835365 292.430938,48.4835365 C286.129847,48.4835365 281.371586,43.6635683 281.371586,37.6396635 C281.371586,31.6145524 286.129847,26.7523619 292.430938,26.7523619 Z" id="Fill-13" fill="#FFFFFF"></path>
            <path d="M0.349960474,37.8844317 L0.349960474,75.6534159 C21.1270988,75.6534159 37.9702609,58.744019 37.9702609,37.8844317 L37.9702609,0.114844444 C17.1931225,0.114844444 0.349960474,17.0248444 0.349960474,37.8844317" id="Fill-15" fill="#00AEEF"></path>
            <path d="M75.6274498,37.8844317 L75.6274498,75.6534159 C96.4045881,75.6534159 113.24775,58.744019 113.24775,37.8844317 L113.24775,0.114844444 C92.4706119,0.114844444 75.6274498,17.0248444 75.6274498,37.8844317" id="Fill-17" fill="#FFE300"></path>
            <path d="M75.5902008,37.8844317 C75.5902008,17.0248444 58.7470387,0.114844444 37.9699004,0.114844444 L37.9699004,37.8844317 C37.9699004,58.744019 54.8130625,75.6534159 75.5902008,75.6534159 L75.5902008,37.8844317 Z" id="Fill-19" fill="#64C3A2"></path>
        </g>
    </g>
</svg>