<?xml version="1.0" encoding="UTF-8"?>
<svg width="152px" height="38px" viewBox="0 0 152 38" version="1.1" xmlns="http://www.w3.org/2000/svg" xmlns:xlink="http://www.w3.org/1999/xlink">
    <!-- Generator: Sketch 51.2 (57519) - http://www.bohemiancoding.com/sketch -->
    <title>Netgiro_Logo_100</title>
    <desc>Created with Sketch.</desc>
    <defs></defs>
    <g id="Page-1" stroke="none" stroke-width="1" fill="none" fill-rule="evenodd">
        <g id="Netgiro_Logo_100">
            <path d="M69.4234166,24.026646 L69.4234166,13.5911222 L72.1023415,13.5911222 L72.1023415,14.4304397 C72.895385,13.7850429 73.8809818,13.3763921 75.0384047,13.3763921 C76.4742941,13.3763921 77.7816142,14.0214873 78.6389423,15.0544238 C79.3244443,15.872027 79.7101518,16.9263762 79.7101518,18.7120746 L79.7101518,24.026646 L76.9242862,24.026646 L76.9242862,18.4970429 C76.9242862,17.4641063 76.6887763,16.9263762 76.3027684,16.5391381 C75.9383889,16.1730111 75.3811557,15.958281 74.7383099,15.958281 C73.5598593,15.958281 72.5952901,16.7113444 72.2095826,17.2490746 L72.2095826,24.026646 L69.4234166,24.026646 Z" id="Fill-1" fill="#FFFFFF"></path>
            <path d="M90.5766498,17.4641968 C90.4910372,16.5392286 89.6553375,15.6353714 88.5192427,15.6353714 C87.3621202,15.6353714 86.4191794,16.5175143 86.2903099,17.4641968 L90.5766498,17.4641968 Z M93.1699621,22.3698159 C92.1627368,23.5746571 90.5123652,24.2417683 88.9052506,24.2417683 C85.7976617,24.2417683 83.4614877,22.0902444 83.4614877,18.8198317 C83.4614877,15.9149429 85.4332822,13.376181 88.5192427,13.376181 C91.3910213,13.376181 93.4271004,15.8072762 93.4271004,18.7121651 C93.4271004,18.9920381 93.4054719,19.2716095 93.3628158,19.5083556 L86.1620411,19.5083556 C86.3119383,20.971054 87.4906893,21.9825778 88.9692348,21.9825778 C90.1479858,21.9825778 91.0909265,21.3154667 91.5838751,20.7777365 L93.1699621,22.3698159 Z" id="Fill-3" fill="#FFFFFF"></path>
            <path d="M105.000759,24.026646 C104.636379,24.1557254 103.80068,24.2416778 103.264775,24.2416778 C101.593375,24.2416778 100.371668,23.6822333 99.6642372,22.7355508 C99.1286324,22.0256143 98.8928221,21.1003444 98.8928221,19.6159317 L98.8928221,15.958281 L95.9997154,15.958281 L95.9997154,13.5911222 L98.8928221,13.5911222 L98.8928221,10.6868365 L101.678988,10.6868365 L101.678988,13.5911222 L105.108,13.5911222 L105.108,15.958281 L101.678988,15.958281 L101.678988,19.9383286 C101.678988,20.584027 101.786229,20.9712651 102.021739,21.2508365 C102.300506,21.5738365 102.750498,21.7674556 103.4363,21.7674556 C103.843636,21.7674556 104.379241,21.7029159 104.572095,21.6597889 L105.000759,24.026646 Z" id="Fill-5" fill="#FFFFFF"></path>
            <path d="M116.252964,17.2491952 C115.674403,16.474719 114.75249,15.9581 113.68098,15.9581 C112.052538,15.9581 111.002356,17.3137349 111.002356,18.8198619 C111.002356,20.4547667 112.181107,21.6596079 113.745265,21.6596079 C114.795447,21.6596079 115.717059,21.1432905 116.252964,20.3691159 L116.252964,17.2491952 Z M119.03913,23.4456079 C119.03913,25.3175603 118.717407,26.4364492 118.095889,27.3185921 C117.152648,28.6311 115.481249,29.4055762 113.488126,29.4055762 C111.452648,29.4055762 109.52351,28.4588937 108.494957,27.2540524 L110.252269,25.425227 C110.809802,26.0274968 111.773771,26.931354 113.488126,26.931354 C114.388411,26.931354 115.138198,26.651481 115.610119,26.0920365 C116.038482,25.6185444 116.252964,24.9731476 116.252964,23.6395286 L116.252964,23.2951159 C115.416964,23.9405127 114.51698,24.2417984 113.467099,24.2417984 C111.923968,24.2417984 110.445123,23.552973 109.52351,22.4775127 C108.709439,21.5308302 108.21619,20.2397349 108.21619,18.8198619 C108.21619,15.7427667 110.488079,13.3762111 113.316901,13.3762111 C114.495352,13.3762111 115.545534,13.7634492 116.360206,14.4302587 L116.360206,13.5912429 L119.03913,13.5912429 L119.03913,23.4456079 Z" id="Fill-7" fill="#FFFFFF"></path>
            <path d="M128.5765,8.53510159 L126.004515,11.9777206 L124.075978,11.9777206 L125.575851,8.53510159 L128.5765,8.53510159 Z M123.861496,24.0267365 L126.647361,24.0267365 L126.647361,13.5912127 L123.861496,13.5912127 L123.861496,24.0267365 Z" id="Fill-9" fill="#FFFFFF"></path>
            <path d="M137.792536,16.065827 C137.599382,16.0009857 137.192346,15.9581603 136.78501,15.9581603 C135.563603,15.9581603 134.599334,16.8400016 134.256583,17.4642873 L134.256583,24.0265254 L131.470117,24.0265254 L131.470117,13.5913032 L134.149042,13.5913032 L134.149042,14.6456524 C134.77056,13.8711762 135.906655,13.3762714 137.171018,13.3762714 C137.578054,13.3762714 137.813864,13.4190968 138.113658,13.4622238 L137.792536,16.065827 Z" id="Fill-11" fill="#FFFFFF"></path>
            <path d="M149.751421,8.53510159 L147.179437,11.9777206 L145.2509,11.9777206 L146.750773,8.53510159 L149.751421,8.53510159 Z M146.215469,21.6598794 C147.843611,21.6598794 148.958378,20.3904984 148.958378,18.8198317 C148.958378,17.2491651 147.843611,15.9580698 146.215469,15.9580698 C144.586425,15.9580698 143.472259,17.2491651 143.472259,18.8198317 C143.472259,20.3904984 144.586425,21.6598794 146.215469,21.6598794 Z M146.215469,13.376181 C149.365413,13.376181 151.744544,15.8072762 151.744544,18.8198317 C151.744544,21.8317841 149.365413,24.2417683 146.215469,24.2417683 C143.064923,24.2417683 140.685793,21.8317841 140.685793,18.8198317 C140.685793,15.8072762 143.064923,13.376181 146.215469,13.376181 Z" id="Fill-13" fill="#FFFFFF"></path>
            <path d="M0.174980237,18.9422159 L0.174980237,37.8267079 C10.5635494,37.8267079 18.9851304,29.3720095 18.9851304,18.9422159 L18.9851304,0.0574222222 C8.59656126,0.0574222222 0.174980237,8.51242222 0.174980237,18.9422159" id="Fill-15" fill="#00AEEF"></path>
            <path d="M37.8137249,18.9422159 L37.8137249,37.8267079 C48.2022941,37.8267079 56.6238751,29.3720095 56.6238751,18.9422159 L56.6238751,0.0574222222 C46.2353059,0.0574222222 37.8137249,8.51242222 37.8137249,18.9422159" id="Fill-17" fill="#FFE300"></path>
            <path d="M37.7951004,18.9422159 C37.7951004,8.51242222 29.3735194,0.0574222222 18.9849502,0.0574222222 L18.9849502,18.9422159 C18.9849502,29.3720095 27.4065312,37.8267079 37.7951004,37.8267079 L37.7951004,18.9422159 Z" id="Fill-19" fill="#64C3A2"></path>
        </g>
    </g>
</svg>